<svg width="157" height="166" viewBox="0 0 157 166" fill="none" xmlns="http://www.w3.org/2000/svg">
<path d="M4.57249 4.2845C4.6933 6.71002 4.77843 9.8771 4.8594 12.2773C4.88518 13.0376 4.7248 12.6636 4.73812 13.1885C4.76564 14.2144 4.91163 15.1552 4.94433 16.1589C4.95518 16.4964 4.70656 16.0985 4.72293 16.4521C4.81586 18.3912 5.06945 20.1792 5.2733 22.1301C6.27881 31.6952 8.13516 41.0178 10.7069 50.4282C11.5537 53.5357 12.5371 57.3291 13.6918 60.4433C13.8285 60.8126 13.9269 60.5308 13.9655 60.5967C14.5652 61.625 14.0873 61.3789 14.2895 62.1078C15.0991 65.0104 16.2649 68.144 17.4138 70.7896C17.9108 71.9308 17.7809 70.644 18.0604 71.8676C18.0801 71.9519 17.7811 71.7397 17.8894 72.0574C18.1247 72.755 18.7412 74.1244 18.9526 74.651C19.3757 75.7084 19.4646 75.9054 19.8903 76.8683C20.5005 78.2484 21.1352 79.8543 21.8703 81.2758C22.0266 81.5765 22.0131 81.0881 22.2771 81.5548C22.5265 81.995 23.1626 83.3153 23.3324 83.7498C23.5146 84.2124 23.2782 84.0949 23.2856 84.1892C23.3274 84.9489 24.4622 86.1905 24.5868 86.3927C24.9017 86.9157 25.2252 87.4628 25.5021 87.9274C27.063 90.548 28.5976 92.8829 30.5597 95.1965C32.3345 97.2846 34.4257 99.3647 36.2648 101.245C38.4559 103.484 40.2894 105.42 42.4955 107.533C42.7286 107.756 42.6205 107.323 42.9064 107.596C44.4015 109.025 45.8885 110.455 47.3561 111.901C48.8199 113.343 50.3713 114.703 51.9826 116.01C52.3019 116.268 51.7534 116.118 52.0664 116.386C53.9673 118.045 57.2008 120.528 58.9625 120.473C60.4273 121.356 62.2499 122.357 63.5477 123.202C64.3848 123.745 63.4194 123.524 64.5599 123.972C64.8175 124.072 64.5803 123.739 64.96 123.902C66.5548 124.587 68.2599 125.423 69.8818 126.004C70.2116 126.122 70.193 125.921 70.2965 125.93C71.1607 126.018 72.2775 126.937 72.5479 127.079C74.5971 128.155 76.207 128.671 78.2211 129.42C78.6885 129.594 78.2175 129.168 78.6699 129.326C81.0178 130.149 83.4475 131.017 85.7259 131.901C86.2317 132.098 85.6945 132.13 85.9328 132.233C86.9905 132.69 87.3472 132.406 88.3669 132.834C88.5813 132.924 88.4026 133.047 88.4367 133.078C88.9676 133.571 89.6493 133.351 89.8135 133.396C90.681 133.627 91.3983 133.913 92.0718 134.207C93.0119 134.617 93.8977 135.051 95.0565 135.391C95.2956 135.46 94.8297 135.078 95.498 135.286C99.9397 136.67 104.616 138.164 109.018 139.494C109.702 139.701 109.167 139.732 109.206 139.763C109.838 140.255 110.403 139.959 110.632 140C112.44 140.336 114.04 141.07 115.366 140.841C122.657 142.611 130.084 143.366 137.495 144.022C137.783 144.047 138.052 144.072 138.329 144.099C138.425 144.108 138.244 144.311 138.437 144.328C139.618 144.433 140.103 144.402 140.474 144.294C140.555 144.266 140.66 144.234 140.71 144.195C140.713 144.188 140.764 144.166 140.661 144.178C140.579 144.245 140.753 143.991 140.316 144.44C140.174 145.404 140.511 145.096 140.495 145.209C140.587 145.268 140.562 145.253 140.572 145.265C140.569 145.284 140.513 145.289 140.465 145.298C140.256 145.331 139.968 145.363 139.55 145.358C139.194 145.358 138.373 144.774 138.085 144.527C138.032 144.483 137.995 144.451 137.981 144.44C137.657 144.184 138.145 144.031 138.031 143.962C137.099 143.4 136.885 144.433 135.519 143.853C135.478 143.833 135.731 143.736 135.625 143.67C135.298 143.463 134.92 143.376 134.608 143.158C133.895 142.654 133.849 142.082 132.567 141.738C132.406 141.691 132.349 142.337 131.213 141.675C130.755 141.419 128.767 140.235 128.25 139.845C127.727 139.463 128.203 139.545 128.168 139.513C126.856 138.356 127.464 138.628 126.958 137.84C126.459 137.05 126.157 137.905 125.81 137.782C125.462 137.66 124.554 136.752 124.348 136.509C124.14 136.267 124.523 136.4 124.325 136.204C123.019 134.902 123.421 136.072 122.855 135.82C121.518 135.219 121.045 134.019 120.07 133.16C119.807 132.928 119.938 133.222 119.684 133.037C118.683 132.302 118.233 131.675 117.021 130.931C116.821 130.808 115.693 130.396 115.299 129.712C115.243 129.614 115.575 129.673 115.188 129.316C114.701 128.866 113.859 128.156 113.183 127.664C113.05 127.567 112.925 127.478 112.81 127.4C112.292 127.047 112.695 127.701 112.122 127.146C111.869 126.9 112.476 127.18 111.995 126.728C111.514 126.28 110.21 125.221 109.725 124.806C109.237 124.394 109.37 124.775 109.322 124.752C109.031 124.609 108.049 123.86 107.97 123.782C104.693 120.786 101.972 117.192 101.127 112.87C101.073 112.352 100.798 111.72 101.501 111.075C102.297 110.658 102.83 111.018 103.316 111.171C103.719 111.343 103.543 111.03 103.605 111.054C104.99 111.672 103.692 111.62 104.453 112.283C104.553 111.838 105.034 112.21 105.889 112.75C106.308 113.017 106.182 112.723 106.23 112.736C106.968 112.948 107.176 113.52 107.24 113.651C107.47 114.134 108.064 114.223 108.213 114.55C108.367 114.879 107.63 114.61 108.392 115.204C108.698 115.249 108.391 114.489 109.003 114.89C111.334 116.411 115.053 119.984 116.787 121.322C117.14 121.598 117.455 121.835 117.718 122.024C118.802 122.804 119.35 123.174 120.165 123.791C122.02 125.19 121.49 124.46 122.758 125.155C124.032 125.848 123.037 126.069 123.121 126.317C123.202 126.563 123.478 126.552 123.641 126.766C123.803 126.979 123.286 126.764 123.764 127.123C124.241 127.482 125.757 128.146 126.025 128.123C126.592 128.074 126.181 127.363 127.426 128.335C127.498 128.391 127.145 128.393 127.425 128.599C129.649 130.232 132.057 131.782 134.321 133.355C134.631 133.572 134.229 133.575 134.41 133.704C136.283 135.035 135.784 134.293 137.065 134.608C136.778 134.777 136.776 135.048 137.068 135.404C137.309 135.7 137.764 136.064 138.423 136.493C139.295 137.064 139.273 136.77 139.931 137.009C140.127 137.08 140.651 137.632 140.823 137.616C141.392 137.569 141.05 136.833 142.438 137.999C142.498 138.051 142.178 138.068 142.395 138.235C143.791 139.319 144.182 139.135 145.751 140.228C146.98 141.086 148.963 142.876 150.283 143.951C149.883 144.407 151.234 145.283 152.004 145.36C152.861 146.057 153.807 146.781 154.602 147.499C154.874 147.744 154.577 147.729 154.601 147.773C154.947 148.417 155.532 148.44 155.753 148.557C155.769 148.567 155.784 148.577 155.797 148.587C156.235 148.769 156.202 149.775 155.849 149.96C155.565 150.244 155.266 150.4 154.988 150.542C154.414 150.821 153.851 151.004 153.288 151.18C152.159 151.526 151.061 151.809 149.887 152.248C149.8 152.28 149.769 152.723 149.045 152.574C149.002 152.562 149.753 152.193 148.618 152.438C147.479 152.684 145.296 152.908 143.752 153.408C143.382 153.528 142.476 154.052 141.65 153.936C141.54 153.92 141.63 153.78 141.469 153.742C140.944 153.624 140.762 154.091 140.126 153.842C139.524 153.603 138.379 153.549 136.933 154.007C136.86 154.03 136.786 154.055 136.712 154.08C136.662 154.097 136.343 154.499 135.849 154.592C135.043 154.742 133.908 154.92 133.078 155.125C132.684 155.222 132.986 155.364 132.919 155.384C130.304 156.159 128.397 156.537 125.615 157.459C125.099 157.629 123.77 158.445 122.728 158.639C121.585 158.857 122.254 157.43 119.927 158.733C118.986 159.268 118.344 161.011 116.341 161.253C114.51 162.269 112.695 163.143 110.86 163.949C109.836 164.339 108.691 165.397 108.013 165.319C107.746 165.099 107.635 164.739 107.657 164.348C107.65 164.206 107.435 163.585 107.621 163.204C107.884 162.658 108.206 162.475 108.439 162.131C109.447 160.711 110.419 159.44 111.604 158.247C112.057 157.798 112.024 158.079 112.57 157.554C112.933 157.207 113.147 156.864 113.493 156.491C113.494 156.489 113.499 156.486 113.501 156.484C113.717 156.339 113.967 156.196 114.286 156.064C115.014 155.762 115.908 155.83 116.849 155.442C116.682 155.006 117.32 154.701 118.426 154.095C118.64 153.978 118.337 153.93 118.435 153.867C118.834 153.607 119.285 153.569 119.663 153.321C119.755 153.262 119.701 153.111 119.774 153.054C120.393 152.556 121.683 152.472 121.903 152.463C122.747 152.418 123.039 152.101 123.659 151.994C124.278 151.888 123.432 152.29 124.139 152.117C125.599 151.76 127.437 151.168 128.891 150.699C129.471 150.511 129.009 150.438 129.09 150.407C130.267 149.964 131.548 149.744 132.044 149.094C133.255 149.792 132.721 148.741 134.432 148.206C134.565 148.163 134.956 148.554 134.486 148.856C134.015 149.158 133.184 149.337 132.517 149.725C132.363 149.818 131.559 150.638 131.432 150.713C130.458 151.305 130.058 150.614 129.99 150.594C129.22 150.372 128.191 151.254 127.886 151.388C126.496 152.006 125.244 152.281 124.089 152.787C123.336 153.117 123.424 153.624 122.816 153.818C120.814 154.471 119.845 154.082 118.264 155.436C117.928 155.734 118.54 156.049 116.991 156.299C116.896 156.312 115.7 156.457 115.25 156.991C115.193 157.058 115.272 157.199 115.184 157.262C114.856 157.496 114.569 157.637 114.259 157.798L114.53 157.597C114.32 157.777 114.102 157.97 113.868 158.234C113.343 158.826 112.742 159.559 112.099 160.17C111.71 160.537 111.034 160.851 110.812 161.001C110.177 161.416 109.99 162.235 109.54 162.438C109.081 162.66 109.237 161.692 108.448 162.616C108.786 162.87 109.107 163.174 109.445 163.436C108.942 164.154 109.07 164.895 108.861 164.405C107.812 163.8 107.914 164.283 108.073 164.11C108.236 164.04 108.474 163.908 108.715 163.771C109.208 163.491 109.755 163.169 110.376 162.893C110.847 162.684 111.331 162.455 111.802 162.22C112.1 162.071 111.697 162.017 112.01 161.854C113.337 161.158 114.595 160.691 115.985 159.931C117.064 159.338 118.182 158.533 119.34 157.938C120.261 158.043 121.954 157.122 123.281 156.648C123.74 156.483 123.758 156.614 124.1 156.527C125.381 156.206 124.659 156.028 124.976 155.838C126.345 155.04 126.784 155.9 128.504 155.327C128.594 155.296 129.575 154.464 129.728 154.389C130.67 153.904 129.942 154.512 130.575 154.374C131.736 154.128 132.558 154.043 133.875 153.59C134.261 153.456 135.147 152.938 135.966 153.033C136.073 153.045 136.049 153.223 136.132 153.217C136.385 153.197 136.595 153.166 136.773 153.127C137.634 152.937 137.704 152.523 138.366 152.249C139.162 151.919 140.506 152.042 140.785 152.097C141.518 152.238 140.285 152.31 140.255 152.343C139.881 152.739 140.803 152.511 141.519 152.402C141.717 152.896 142.712 152.674 142.263 152.287C142.214 152.244 141.664 152.399 141.519 152.402C142.052 151.779 143.123 151.508 144.421 151.736C145.032 151.842 144.549 152.211 146.24 151.763C147.014 151.556 146.629 151.27 147.295 151.026C148.791 150.472 150.887 150.328 152.389 149.807C152.934 149.616 152.341 149.597 152.705 149.459C153.184 149.274 153.627 149.138 154.022 148.98C154.377 148.988 154.864 148.083 154.365 149.197C154.389 149.471 154.032 148.785 154.256 149.767C154.379 150.022 154.463 150.067 154.492 150.098C152.61 148.573 150.997 147.133 148.977 145.561C147.956 144.765 146.049 143.457 144.988 142.643C143.154 141.227 141.008 139.326 139.33 138.287C138.238 137.611 138.355 137.941 137.823 137.76C137.306 137.585 136.725 137.15 136.246 136.743C135.748 136.323 135.359 135.916 135.269 135.815C135.265 135.811 136.243 136.357 135.791 135.954C135.612 135.584 135.279 135.821 135.269 135.815C135.151 135.687 133.271 134.461 132.874 134.255C132.658 134.145 132.668 134.382 132.558 134.321C129.924 132.87 127.366 131.284 124.873 129.531C124.83 129.498 125.018 129.36 124.916 129.285C123.499 128.233 122.413 127.827 121.118 127.142C119.823 126.457 118.9 125.756 118.406 124.956C117.846 124.602 117.189 124.082 116.609 123.591C116.214 123.259 115.861 122.93 115.584 122.669C114.921 122.032 114.559 122.281 114.49 122.239C112.351 120.88 111.413 119.761 109.459 118.115C108.532 117.329 106.623 115.877 105.567 115.163C104.734 114.597 104.294 114.164 103.517 113.756C103.413 113.702 103.415 113.925 103.381 113.913C102.468 113.637 103.083 113.468 102.957 113.301C102.728 113.009 102.528 112.79 102.315 112.661C102.219 112.595 102.087 112.573 102.165 112.574C102.223 112.675 102.845 112.129 102.778 112.1C102.799 112.077 102.995 112.208 103.241 112.439C103.447 112.675 103.65 112.909 103.725 113.115C103.95 113.713 103.647 113.555 103.93 114.177C103.956 114.23 104.084 114.168 104.235 114.556C104.941 116.354 106.182 118.235 107.691 119.833C107.897 120.051 107.806 119.612 108.105 119.921C109.515 121.374 111.234 122.882 112.77 124.263C113.15 124.606 112.799 124.532 112.854 124.639C113.2 125.295 114.229 125.556 114.359 125.646C114.442 125.704 114.525 125.761 114.607 125.819C117.71 128.011 119.692 130.18 122.793 132.384C122.966 132.508 124.532 133.143 124.873 133.887C124.896 133.938 125.23 134.691 125.904 134.843C125.946 134.852 125.709 134.424 126.323 134.898C126.939 135.372 128.033 135.975 128.788 136.75C129.025 136.994 129.473 137.773 130.493 138.03C130.563 138.053 132.239 138.223 132.464 138.917C132.501 139.029 132.158 139.454 133.332 139.784C133.556 139.845 133.25 139.549 133.809 139.762C134.663 140.086 135.682 140.744 136.79 140.967C136.986 141.008 137.867 140.994 138.376 141.477C138.456 141.553 138.211 141.649 138.528 141.79C138.682 141.858 138.839 141.923 138.997 141.986C139.627 142.239 140.271 142.397 141.107 142.599C141.17 142.615 141.219 142.627 141.339 142.662C141.391 142.68 141.462 142.694 141.668 142.784C141.764 142.833 141.898 142.873 142.2 143.122C142.296 143.352 142.71 143.074 142.931 144.786C142.752 146.5 141.509 146.665 141.67 146.659C141.192 146.852 141.052 146.82 141.011 146.835C140.588 146.868 140.581 146.848 140.439 146.849C140.208 146.843 139.998 146.833 139.8 146.821C139.391 146.798 138.997 146.766 138.6 146.724C137.972 146.656 138.307 146.384 137.661 146.284C137.588 146.272 137.505 146.261 137.413 146.249C136.703 146.159 135.594 146.061 134.969 146.14C134.269 146.229 134.999 146.729 133.957 146.699C129.41 146.558 124.965 145.74 120.524 144.922C119.865 144.799 120.384 145.058 119.411 144.884C115.818 144.27 109.657 142.97 106.718 141.787C104.361 140.853 107.471 141.492 105.649 140.872C104.771 140.572 103.666 140.802 103.443 140.755C101.294 140.305 99.9097 139.637 98.0151 139.117C97.624 139.01 97.9388 139.333 97.6069 139.239C96.47 138.919 95.3222 138.45 94.247 138.118C93.7647 137.969 93.804 138.154 93.3666 137.997C92.5652 137.712 91.8444 137.426 91.1167 137.092C90.8936 136.989 90.6686 136.882 90.439 136.768C90.3501 136.724 91.0431 136.739 90.2684 136.475C89.0146 136.047 87.4988 135.385 86.0023 135.046C85.558 134.945 85.4186 135.293 84.5798 134.736C84.4033 134.619 84.7953 134.28 83.5937 134.278C83.3938 134.279 81.4146 134.149 80.6379 133.517C80.4337 133.351 79.9613 132.795 79.4263 132.665C79.3532 132.648 79.5661 132.938 79.1317 132.803C77.6057 132.325 76.0378 131.724 74.4767 131.192C74.0598 131.05 74.5974 131.479 73.978 131.261C72.2732 130.661 70.1964 129.765 68.592 129.007C68.0011 128.728 68.484 128.748 68.4476 128.712C67.8664 128.131 67.2899 128.325 67.0474 128.244C65.5433 127.735 64.5296 127.053 63.1926 126.464C62.8238 126.301 62.9955 126.601 62.9156 126.582C62.0913 126.369 62.8036 126.326 62.3483 126.059C61.071 125.306 59.6067 124.559 58.2822 123.851C57.7972 123.591 58.2266 124.091 57.7923 123.855C55.2121 122.452 52.6233 120.79 50.3663 118.97C49.9428 118.627 50.3225 118.69 50.2553 118.591C49.7984 117.907 48.6676 117.5 48.4384 117.36C47.3977 116.729 47.1399 116.305 46.3243 115.62C45.8686 115.235 45.406 114.825 44.9485 114.399C41.5582 111.241 37.7984 107.512 34.8662 104.491C30.5867 100.034 27.2907 96.4226 23.9039 91.314C23.6924 90.9868 23.7071 91.4435 23.5225 91.1615C23.1912 90.6503 22.873 90.1302 22.5687 89.6036C20.7697 86.4665 19.2437 83.2289 17.6764 79.9679C17.5309 79.6631 17.5341 80.1992 17.293 79.71C16.7851 78.6804 16.2237 77.3871 15.8217 76.2774C15.6363 75.7618 16.1004 76.3612 15.9102 75.8428C15.4617 74.6197 14.9377 73.3233 14.3953 72.0769C14.1629 71.5429 14.2813 72.4389 13.9982 71.7436C12.0996 67.0784 10.3635 62.3546 9.09835 57.4103C9.01172 57.0707 9.35597 56.6419 9.04959 55.9518C8.91139 55.9354 8.76944 55.9825 8.63231 55.9991C6.38579 48.9892 4.74721 41.8527 3.36879 34.5961C3.31103 34.2911 3.17405 34.8644 3.06122 34.2732C2.40622 30.8226 1.79334 27.5048 1.55101 23.9143C1.52781 23.5613 1.97327 23.6857 1.77558 22.6621C1.73905 22.4829 1.48963 20.9269 1.35195 20.529C1.3318 20.4763 1.16647 20.7825 1.10278 20.2818C0.736688 17.3692 0.502927 14.2726 0.435743 11.3326C0.425458 10.8586 0.669408 11.3484 0.664124 11.0109C0.624385 8.6083 0.355865 6.01945 0.501881 3.72084C0.603016 2.19256 0.981098 2.75115 1.33183 1.93694C1.38088 1.82214 1.38245 0.876095 1.59303 0.826203C2.12088 0.699347 2.7015 1.1524 3.26386 0.962863C3.38399 0.923404 3.25218 -0.331549 3.54597 0.411213C3.56509 0.463431 3.66616 1.37057 3.76823 1.59198C3.83836 1.74636 4.04951 1.46548 4.14045 1.78041C4.23151 2.09488 4.05627 2.44376 4.16835 2.96362C4.28265 3.48245 4.51951 3.24956 4.57249 4.2845ZM112.664 119.753C112.15 119.066 111.578 119.564 112.39 120C112.43 120.02 112.691 119.788 112.664 119.753ZM109.571 163.982C110.053 163.86 110.426 163.661 110.646 163.482C110.9 163.26 110.869 163.039 110.456 163.067C110.44 163.069 110.424 163.072 110.407 163.074C109.479 163.233 109.227 164.076 109.571 163.982ZM112.314 158.461C111.242 159.187 111.882 160.055 112.654 158.95C112.7 158.886 112.376 158.42 112.314 158.461ZM1.51545 5.68684C1.52468 5.6751 1.51363 4.9952 1.50365 4.97904C1.25529 4.62335 1.27732 5.98503 1.51545 5.68684ZM121.81 153.075C121.386 153.071 120.374 153.628 120.897 153.622C121.318 153.615 122.334 153.077 121.81 153.075ZM120.271 132.853C120.274 132.87 120.645 133.179 120.677 133.124C120.777 132.944 120.217 132.571 120.271 132.853ZM139.454 145.783C138.422 146.482 137.471 146.793 136.937 146.917C136.456 147.013 136.317 146.895 136.724 146.562C136.932 146.392 137.278 146.165 137.785 145.883C138.27 145.613 136.904 146.737 137.55 146.442C138.768 145.905 139.091 144.984 140.332 144.404C140.55 144.304 139.595 145.687 139.451 145.787C139.452 145.786 139.453 145.784 139.454 145.783ZM112.864 118.755C112.857 118.736 112.345 118.302 112.327 118.3C111.895 118.252 112.926 119.126 112.864 118.755ZM136.526 144.233C136.491 144.213 134.943 144.113 134.892 144.127C134.058 144.472 137.197 144.678 136.526 144.233ZM150.294 143.98C151.019 144.24 151.728 144.759 152.002 145.357C151.439 144.894 150.863 144.44 150.294 143.98Z" fill="#10AA02"/>
</svg>
