<svg width="16" height="16" viewBox="0 0 16 16" fill="none" xmlns="http://www.w3.org/2000/svg">
<path fill-rule="evenodd" clip-rule="evenodd" d="M8 0C12.4182 0 16 3.58172 16 8C16 12.4182 12.4182 16 8 16C3.58172 16 0 12.4182 0 8C1.71807e-07 3.58172 3.58172 1.71801e-07 8 0ZM11.2318 4.98047C11.0367 4.66832 10.626 4.57328 10.3138 4.76823C9.09593 5.5294 8.09312 6.99232 7.42057 8.16927C7.17503 8.59899 6.96844 9.00795 6.79948 9.35417C6.65323 9.19481 6.51174 9.05114 6.38021 8.93229C6.19575 8.76564 6.02903 8.63391 5.90755 8.54297C5.84682 8.49751 5.79641 8.46253 5.76042 8.4375C5.74246 8.42502 5.72812 8.41473 5.71745 8.40755C5.71212 8.40397 5.70779 8.40066 5.70443 8.39844C5.70293 8.39745 5.70161 8.39655 5.70052 8.39583L5.69792 8.39453C5.38946 8.19349 4.97579 8.28009 4.77474 8.58854C4.57397 8.89678 4.66084 9.30926 4.96875 9.51042L4.97396 9.51302C4.97916 9.51652 4.98788 9.52283 5 9.53125C5.02435 9.54818 5.062 9.57521 5.10938 9.61068C5.20448 9.68189 5.33842 9.78764 5.48698 9.92188C5.79078 10.1964 6.127 10.5638 6.34245 10.9753L6.39323 11.0573C6.52429 11.2386 6.73977 11.3436 6.96745 11.332C7.22729 11.3187 7.45545 11.1557 7.55208 10.9141L7.55339 10.9128C7.55395 10.9114 7.55481 10.9091 7.55599 10.9062C7.55859 10.8999 7.56218 10.8897 7.56771 10.8763C7.57894 10.8491 7.59698 10.8072 7.61979 10.7539C7.66543 10.6473 7.73318 10.4917 7.82161 10.3008C7.99918 9.91742 8.25786 9.39348 8.57943 8.83073C9.24014 7.67453 10.1042 6.47061 11.0195 5.89844C11.3317 5.70335 11.4267 5.29266 11.2318 4.98047Z" fill="#10AA02"/>
</svg>
