<svg width="24" height="24" viewBox="0 0 24 24" fill="none" xmlns="http://www.w3.org/2000/svg">
    <path d="M15 7C15 7 15.5 7.5 16 8.5C16 8.5 17.5882 6 19 5.5" stroke="#0A1B04" stroke-width="1.5" stroke-linecap="round" stroke-linejoin="round"/>
    <path d="M9.99485 2.02128C7.49638 1.9155 5.56612 2.20332 5.56612 2.20332C4.34727 2.29047 2.01146 2.97379 2.01148 6.96448C2.0115 10.9212 1.98564 15.7992 2.01148 17.7438C2.01148 18.9319 2.7471 21.7032 5.29326 21.8517C8.3881 22.0323 13.9627 22.0707 16.5204 21.8517C17.2051 21.8131 19.4846 21.2756 19.7731 18.7955C20.072 16.2262 20.0125 14.4406 20.0125 14.0156" stroke="#0A1B04" stroke-width="1.5" stroke-linecap="round" stroke-linejoin="round"/>
    <path d="M22 6.99998C22 9.76139 19.7614 12 17 12C14.2386 12 12 9.76139 12 6.99998C12 4.23857 14.2386 2 17 2C19.7614 2 22 4.23857 22 6.99998Z" stroke="#0A1B04" stroke-width="1.5" stroke-linecap="round"/>
    <path d="M6.98047 13.0156H10.9804" stroke="#0A1B04" stroke-width="1.5" stroke-linecap="round"/>
    <path d="M6.98047 17.0156H14.9804" stroke="#0A1B04" stroke-width="1.5" stroke-linecap="round"/>
</svg>
