<svg width="332" height="216" viewBox="0 0 332 216" fill="none" xmlns="http://www.w3.org/2000/svg">
<path d="M16 0.5H316C324.56 0.5 331.5 7.43959 331.5 16V35.5H0.5V16C0.5 7.43959 7.43959 0.5 16 0.5Z" fill="white" stroke="#D9D9D9"/>
<mask id="path-2-inside-1_0_1" fill="white">
<path d="M0 36H332V200C332 208.837 324.837 216 316 216H16C7.16345 216 0 208.837 0 200V36Z"/>
</mask>
<path d="M0 36H332V200C332 208.837 324.837 216 316 216H16C7.16345 216 0 208.837 0 200V36Z" fill="url(#paint0_linear_0_1)"/>
<path d="M0 36H332H0ZM333 200C333 209.389 325.389 217 316 217H16C6.61116 217 -1 209.389 -1 200H1C1 208.284 7.71573 215 16 215H316C324.284 215 331 208.284 331 200H333ZM16 217C6.61116 217 -1 209.389 -1 200V36H1V200C1 208.284 7.71573 215 16 215V217ZM333 36V200C333 209.389 325.389 217 316 217V215C324.284 215 331 208.284 331 200V36H333Z" fill="url(#paint1_linear_0_1)" mask="url(#path-2-inside-1_0_1)"/>
<g filter="url(#filter0_d_0_1)">
<rect x="24" y="60" width="134" height="60" rx="8" fill="white"/>
<rect x="24.5" y="60.5" width="133" height="59" rx="7.5" stroke="#D9D9D9"/>
</g>
<g filter="url(#filter1_d_0_1)">
<rect x="24" y="136" width="134" height="60" rx="8" fill="white"/>
<rect x="24.5" y="136.5" width="133" height="59" rx="7.5" stroke="#D9D9D9"/>
</g>
<g filter="url(#filter2_d_0_1)">
<rect x="174" y="60" width="134" height="60" rx="8" fill="white"/>
<rect x="174.5" y="60.5" width="133" height="59" rx="7.5" stroke="#D9D9D9"/>
</g>
<circle cx="24" cy="18" r="4" fill="#D9D9D9"/>
<circle cx="36" cy="18" r="4" fill="#D9D9D9"/>
<circle cx="48" cy="18" r="4" fill="#D9D9D9"/>
<circle cx="40" cy="76" r="8" fill="#0A1B04"/>
<path d="M37.7083 74.125C37.7083 73.5172 37.9498 72.9343 38.3795 72.5045C38.8093 72.0748 39.3922 71.8333 40 71.8333C40.6078 71.8333 41.1907 72.0748 41.6205 72.5045C42.0502 72.9343 42.2917 73.5172 42.2917 74.125C42.2917 74.7328 42.0502 75.3157 41.6205 75.7454C41.1907 76.1752 40.6078 76.4167 40 76.4167C39.3922 76.4167 38.8093 76.1752 38.3795 75.7454C37.9498 75.3157 37.7083 74.7328 37.7083 74.125ZM36.25 78.9167C36.25 78.3641 36.4695 77.8342 36.8602 77.4435C37.2509 77.0528 37.7808 76.8333 38.3333 76.8333H41.6667C42.2192 76.8333 42.7491 77.0528 43.1398 77.4435C43.5305 77.8342 43.75 78.3641 43.75 78.9167V80.1667H36.25V78.9167Z" fill="#D9D9D9"/>
<rect x="53" y="72" width="30" height="2" rx="1" fill="#0A1B04"/>
<rect x="53" y="78" width="39" height="2" rx="1" fill="#D9D9D9"/>
<rect x="32" y="106" width="20" height="6" rx="3" fill="#0A1B04"/>
<rect x="56" y="106" width="20" height="6" rx="3" fill="#0A1B04"/>
<rect x="80" y="106" width="20" height="6" rx="3" fill="#0A1B04"/>
<rect x="32" y="94" width="107" height="2" rx="1" fill="#D9D9D9"/>
<rect x="32" y="90" width="118" height="2" rx="1" fill="#D9D9D9"/>
<rect x="32" y="98" width="101" height="2" rx="1" fill="#D9D9D9"/>
<path d="M205.903 74.586C205.856 74.4775 205.789 74.3783 205.707 74.293L199.707 68.293C199.622 68.2108 199.523 68.1445 199.414 68.097C199.384 68.083 199.352 68.075 199.32 68.064C199.236 68.0356 199.149 68.0185 199.061 68.013C199.04 68.011 199.021 68 199 68H192C190.897 68 190 68.897 190 70V86C190 87.103 190.897 88 192 88H204C205.103 88 206 87.103 206 86V75C206 74.979 205.989 74.96 205.987 74.938C205.982 74.8498 205.964 74.7627 205.936 74.679C205.927 74.647 205.916 74.616 205.903 74.586ZM202.586 74H200V71.414L202.586 74ZM192 86V70H198V75C198 75.2652 198.105 75.5196 198.293 75.7071C198.48 75.8946 198.735 76 199 76H204L204.002 86H192Z" fill="#0A1B04"/>
<path d="M194 79C194 78.4477 194.448 78 195 78H201C201.552 78 202 78.4477 202 79C202 79.5523 201.552 80 201 80H195C194.448 80 194 79.5523 194 79ZM194 83C194 82.4477 194.448 82 195 82H201C201.552 82 202 82.4477 202 83C202 83.5523 201.552 84 201 84H195C194.448 84 194 83.5523 194 83ZM194 74.5C194 74.2239 194.224 74 194.5 74H195.5C195.776 74 196 74.2239 196 74.5V75.5C196 75.7761 195.776 76 195.5 76H194.5C194.224 76 194 75.7761 194 75.5V74.5Z" fill="#0A1B04"/>
<path d="M234.903 74.586C234.856 74.4775 234.789 74.3783 234.707 74.293L228.707 68.293C228.622 68.2108 228.523 68.1445 228.414 68.097C228.384 68.083 228.352 68.075 228.32 68.064C228.236 68.0356 228.149 68.0185 228.061 68.013C228.04 68.011 228.021 68 228 68H221C219.897 68 219 68.897 219 70V86C219 87.103 219.897 88 221 88H233C234.103 88 235 87.103 235 86V75C235 74.979 234.989 74.96 234.987 74.938C234.982 74.8498 234.964 74.7627 234.936 74.679C234.927 74.647 234.916 74.616 234.903 74.586ZM231.586 74H229V71.414L231.586 74ZM221 86V70H227V75C227 75.2652 227.105 75.5196 227.293 75.7071C227.48 75.8946 227.735 76 228 76H233L233.002 86H221Z" fill="#0A1B04"/>
<path d="M223 79C223 78.4477 223.448 78 224 78H230C230.552 78 231 78.4477 231 79C231 79.5523 230.552 80 230 80H224C223.448 80 223 79.5523 223 79ZM223 83C223 82.4477 223.448 82 224 82H230C230.552 82 231 82.4477 231 83C231 83.5523 230.552 84 230 84H224C223.448 84 223 83.5523 223 83ZM223 74.5C223 74.2239 223.224 74 223.5 74H224.5C224.776 74 225 74.2239 225 74.5V75.5C225 75.7761 224.776 76 224.5 76H223.5C223.224 76 223 75.7761 223 75.5V74.5Z" fill="#0A1B04"/>
<path d="M263.903 74.586C263.856 74.4775 263.789 74.3783 263.707 74.293L257.707 68.293C257.622 68.2108 257.523 68.1445 257.414 68.097C257.384 68.083 257.352 68.075 257.32 68.064C257.236 68.0356 257.149 68.0185 257.061 68.013C257.04 68.011 257.021 68 257 68H250C248.897 68 248 68.897 248 70V86C248 87.103 248.897 88 250 88H262C263.103 88 264 87.103 264 86V75C264 74.979 263.989 74.96 263.987 74.938C263.982 74.8498 263.964 74.7627 263.936 74.679C263.927 74.647 263.916 74.616 263.903 74.586ZM260.586 74H258V71.414L260.586 74ZM250 86V70H256V75C256 75.2652 256.105 75.5196 256.293 75.7071C256.48 75.8946 256.735 76 257 76H262L262.002 86H250Z" fill="#0A1B04"/>
<path d="M252 79C252 78.4477 252.448 78 253 78H259C259.552 78 260 78.4477 260 79C260 79.5523 259.552 80 259 80H253C252.448 80 252 79.5523 252 79ZM252 83C252 82.4477 252.448 82 253 82H259C259.552 82 260 82.4477 260 83C260 83.5523 259.552 84 259 84H253C252.448 84 252 83.5523 252 83ZM252 74.5C252 74.2239 252.224 74 252.5 74H253.5C253.776 74 254 74.2239 254 74.5V75.5C254 75.7761 253.776 76 253.5 76H252.5C252.224 76 252 75.7761 252 75.5V74.5Z" fill="#0A1B04"/>
<path d="M292.903 74.586C292.856 74.4775 292.789 74.3783 292.707 74.293L286.707 68.293C286.622 68.2108 286.523 68.1445 286.414 68.097C286.384 68.083 286.352 68.075 286.32 68.064C286.236 68.0356 286.149 68.0185 286.061 68.013C286.04 68.011 286.021 68 286 68H279C277.897 68 277 68.897 277 70V86C277 87.103 277.897 88 279 88H291C292.103 88 293 87.103 293 86V75C293 74.979 292.989 74.96 292.987 74.938C292.982 74.8498 292.964 74.7627 292.936 74.679C292.927 74.647 292.916 74.616 292.903 74.586ZM289.586 74H287V71.414L289.586 74ZM279 86V70H285V75C285 75.2652 285.105 75.5196 285.293 75.7071C285.48 75.8946 285.735 76 286 76H291L291.002 86H279Z" fill="#0A1B04"/>
<path d="M281 79C281 78.4477 281.448 78 282 78H288C288.552 78 289 78.4477 289 79C289 79.5523 288.552 80 288 80H282C281.448 80 281 79.5523 281 79ZM281 83C281 82.4477 281.448 82 282 82H288C288.552 82 289 82.4477 289 83C289 83.5523 288.552 84 288 84H282C281.448 84 281 83.5523 281 83ZM281 74.5C281 74.2239 281.224 74 281.5 74H282.5C282.776 74 283 74.2239 283 74.5V75.5C283 75.7761 282.776 76 282.5 76H281.5C281.224 76 281 75.7761 281 75.5V74.5Z" fill="#0A1B04"/>
<path d="M198 88V88C198 90.5387 200.058 92.5968 202.597 92.5968H230.597C236.342 92.5968 241 97.2545 241 103V103" stroke="#D9D9D9"/>
<path d="M284 88V88C284 90.5387 281.942 92.5968 279.403 92.5968H251.403C245.658 92.5968 241 97.2545 241 103V103" stroke="#D9D9D9"/>
<path d="M247.964 105H237.854C237.636 105 237.424 105.066 237.248 105.189C237.072 105.312 236.94 105.485 236.871 105.684L235.036 111V104H247.464C247.464 103.735 247.355 103.48 247.16 103.293C246.966 103.105 246.703 103 246.428 103H240.796C240.554 103 240.319 102.918 240.133 102.768L239.466 102.232C239.28 102.082 239.046 102 238.803 102H235.036C234.761 102 234.498 102.105 234.303 102.293C234.109 102.48 234 102.735 234 103V111C234 111.265 234.109 111.52 234.303 111.707C234.498 111.895 234.761 112 235.036 112H246.428L248.916 106.394C248.984 106.242 249.011 106.076 248.996 105.911C248.981 105.746 248.923 105.588 248.829 105.45C248.735 105.311 248.606 105.198 248.455 105.12C248.305 105.041 248.136 105 247.964 105Z" fill="#0A1B04"/>
<path d="M54.8954 149H44.1106C43.8787 149 43.6526 149.066 43.4644 149.189C43.2763 149.312 43.1356 149.485 43.0623 149.684L41.1047 155V148H54.3613C54.3613 147.735 54.2449 147.48 54.0377 147.293C53.8305 147.105 53.5496 147 53.2566 147H47.2491C46.9907 147 46.7406 146.918 46.5421 146.768L45.8307 146.232C45.6322 146.082 45.3821 146 45.1237 146H41.1047C40.8117 146 40.5307 146.105 40.3236 146.293C40.1164 146.48 40 146.735 40 147V155C40 155.265 40.1164 155.52 40.3236 155.707C40.5307 155.895 40.8117 156 41.1047 156H53.2566L55.9106 150.394C55.9827 150.242 56.0119 150.076 55.9956 149.911C55.9794 149.746 55.9182 149.588 55.8176 149.45C55.717 149.311 55.5801 149.198 55.4191 149.12C55.2582 149.041 55.0782 149 54.8954 149Z" fill="#0A1B04"/>
<path d="M133 155.059C133 155.402 133.135 155.731 133.377 155.974C133.618 156.217 133.945 156.353 134.286 156.353H136.379C135.856 155.716 135.57 154.915 135.571 154.088C135.571 153.558 135.687 153.056 135.893 152.604V149.369L135.156 150.111C135.126 150.141 135.091 150.165 135.052 150.182C135.013 150.198 134.971 150.206 134.929 150.206C134.886 150.206 134.844 150.198 134.805 150.182C134.766 150.165 134.731 150.141 134.701 150.111C134.671 150.081 134.647 150.046 134.631 150.006C134.615 149.967 134.607 149.925 134.607 149.882C134.607 149.84 134.615 149.798 134.631 149.758C134.647 149.719 134.671 149.683 134.701 149.653L135.987 148.359C136.017 148.329 136.052 148.305 136.091 148.289C136.13 148.273 136.172 148.264 136.214 148.264C136.257 148.264 136.298 148.273 136.337 148.289C136.377 148.305 136.412 148.329 136.442 148.359L137.728 149.653C137.788 149.714 137.822 149.796 137.822 149.882C137.822 149.968 137.788 150.051 137.728 150.111C137.667 150.172 137.585 150.206 137.5 150.206C137.415 150.206 137.333 150.172 137.272 150.111L136.536 149.369V151.646C136.903 151.253 137.355 150.95 137.856 150.759C138.357 150.568 138.895 150.494 139.429 150.544V147.294C139.429 146.951 139.293 146.622 139.052 146.379C138.811 146.136 138.484 146 138.143 146H134.286C133.945 146 133.618 146.136 133.377 146.379C133.135 146.622 133 146.951 133 147.294V155.059ZM142 154.088C142 154.86 141.695 155.601 141.153 156.147C140.61 156.693 139.874 157 139.107 157C138.34 157 137.604 156.693 137.062 156.147C136.519 155.601 136.214 154.86 136.214 154.088C136.214 153.316 136.519 152.575 137.062 152.029C137.604 151.483 138.34 151.176 139.107 151.176C139.874 151.176 140.61 151.483 141.153 152.029C141.695 152.575 142 153.316 142 154.088ZM140.62 152.889C140.591 152.858 140.555 152.835 140.516 152.818C140.477 152.802 140.435 152.794 140.393 152.794C140.351 152.794 140.309 152.802 140.27 152.818C140.231 152.835 140.195 152.858 140.165 152.889L138.464 154.601L138.049 154.183C137.989 154.122 137.907 154.088 137.821 154.088C137.736 154.088 137.654 154.122 137.594 154.183C137.534 154.243 137.5 154.326 137.5 154.412C137.5 154.498 137.534 154.58 137.594 154.641L138.237 155.288C138.267 155.318 138.302 155.342 138.341 155.358C138.38 155.375 138.422 155.383 138.464 155.383C138.507 155.383 138.548 155.375 138.587 155.358C138.627 155.342 138.662 155.318 138.692 155.288L140.62 153.347C140.65 153.317 140.674 153.281 140.69 153.242C140.707 153.202 140.715 153.16 140.715 153.118C140.715 153.075 140.707 153.033 140.69 152.994C140.674 152.954 140.65 152.919 140.62 152.889Z" fill="#0A1B04"/>
<rect x="64" y="153" width="61" height="3" rx="1.5" fill="#D9D9D9"/>
<rect x="64" y="146" width="61" height="3" rx="1.5" fill="#D9D9D9"/>
<rect x="64" y="146" width="40.6667" height="3" rx="1.5" fill="#0A1B04"/>
<path d="M54.8954 178H44.1106C43.8787 178 43.6526 178.066 43.4644 178.189C43.2763 178.312 43.1356 178.485 43.0623 178.684L41.1047 184V177H54.3613C54.3613 176.735 54.2449 176.48 54.0377 176.293C53.8305 176.105 53.5496 176 53.2566 176H47.2491C46.9907 176 46.7406 175.918 46.5421 175.768L45.8307 175.232C45.6322 175.082 45.3821 175 45.1237 175H41.1047C40.8117 175 40.5307 175.105 40.3236 175.293C40.1164 175.48 40 175.735 40 176V184C40 184.265 40.1164 184.52 40.3236 184.707C40.5307 184.895 40.8117 185 41.1047 185H53.2566L55.9106 179.394C55.9827 179.242 56.0119 179.076 55.9956 178.911C55.9794 178.746 55.9182 178.588 55.8176 178.45C55.717 178.311 55.5801 178.198 55.4191 178.12C55.2582 178.041 55.0782 178 54.8954 178Z" fill="#0A1B04"/>
<path d="M133 184.059C133 184.402 133.135 184.731 133.377 184.974C133.618 185.217 133.945 185.353 134.286 185.353H136.379C135.856 184.716 135.57 183.915 135.571 183.088C135.571 182.558 135.687 182.056 135.893 181.604V178.369L135.156 179.111C135.126 179.141 135.091 179.165 135.052 179.182C135.013 179.198 134.971 179.206 134.929 179.206C134.886 179.206 134.844 179.198 134.805 179.182C134.766 179.165 134.731 179.141 134.701 179.111C134.671 179.081 134.647 179.046 134.631 179.006C134.615 178.967 134.607 178.925 134.607 178.882C134.607 178.84 134.615 178.798 134.631 178.758C134.647 178.719 134.671 178.683 134.701 178.653L135.987 177.359C136.017 177.329 136.052 177.305 136.091 177.289C136.13 177.273 136.172 177.264 136.214 177.264C136.257 177.264 136.298 177.273 136.337 177.289C136.377 177.305 136.412 177.329 136.442 177.359L137.728 178.653C137.788 178.714 137.822 178.796 137.822 178.882C137.822 178.968 137.788 179.051 137.728 179.111C137.667 179.172 137.585 179.206 137.5 179.206C137.415 179.206 137.333 179.172 137.272 179.111L136.536 178.369V180.646C136.903 180.253 137.355 179.95 137.856 179.759C138.357 179.568 138.895 179.494 139.429 179.544V176.294C139.429 175.951 139.293 175.622 139.052 175.379C138.811 175.136 138.484 175 138.143 175H134.286C133.945 175 133.618 175.136 133.377 175.379C133.135 175.622 133 175.951 133 176.294V184.059ZM142 183.088C142 183.86 141.695 184.601 141.153 185.147C140.61 185.693 139.874 186 139.107 186C138.34 186 137.604 185.693 137.062 185.147C136.519 184.601 136.214 183.86 136.214 183.088C136.214 182.316 136.519 181.575 137.062 181.029C137.604 180.483 138.34 180.176 139.107 180.176C139.874 180.176 140.61 180.483 141.153 181.029C141.695 181.575 142 182.316 142 183.088ZM140.62 181.889C140.591 181.858 140.555 181.835 140.516 181.818C140.477 181.802 140.435 181.794 140.393 181.794C140.351 181.794 140.309 181.802 140.27 181.818C140.231 181.835 140.195 181.858 140.165 181.889L138.464 183.601L138.049 183.183C137.989 183.122 137.907 183.088 137.821 183.088C137.736 183.088 137.654 183.122 137.594 183.183C137.534 183.243 137.5 183.326 137.5 183.412C137.5 183.498 137.534 183.58 137.594 183.641L138.237 184.288C138.267 184.318 138.302 184.342 138.341 184.358C138.38 184.375 138.422 184.383 138.464 184.383C138.507 184.383 138.548 184.375 138.587 184.358C138.627 184.342 138.662 184.318 138.692 184.288L140.62 182.347C140.65 182.317 140.674 182.281 140.69 182.242C140.707 182.202 140.715 182.16 140.715 182.118C140.715 182.075 140.707 182.033 140.69 181.994C140.674 181.954 140.65 181.919 140.62 181.889Z" fill="#0A1B04"/>
<rect x="64" y="182" width="61" height="3" rx="1.5" fill="#D9D9D9"/>
<rect x="64" y="175" width="61" height="3" rx="1.5" fill="#D9D9D9"/>
<rect x="64" y="175" width="40.6667" height="3" rx="1.5" fill="#0A1B04"/>
<g filter="url(#filter3_d_0_1)">
<rect x="174" y="136" width="134" height="60" rx="8" fill="white"/>
<rect x="174.5" y="136.5" width="133" height="59" rx="7.5" stroke="#D9D9D9"/>
</g>
<rect x="187" y="150" width="108" height="2" rx="1" fill="#D9D9D9"/>
<rect x="182" y="144" width="118" height="2" rx="1" fill="#D9D9D9"/>
<rect x="192" y="156" width="98" height="2" rx="1" fill="#D9D9D9"/>
<rect x="197" y="162" width="88" height="2" rx="1" fill="#D9D9D9"/>
<path fill-rule="evenodd" clip-rule="evenodd" d="M241 186C241.788 186 242.568 185.845 243.296 185.543C244.024 185.242 244.685 184.8 245.243 184.243C245.8 183.685 246.242 183.024 246.543 182.296C246.845 181.568 247 180.788 247 180C247 179.212 246.845 178.432 246.543 177.704C246.242 176.976 245.8 176.315 245.243 175.757C244.685 175.2 244.024 174.758 243.296 174.457C242.568 174.155 241.788 174 241 174C239.409 174 237.883 174.632 236.757 175.757C235.632 176.883 235 178.409 235 180C235 181.591 235.632 183.117 236.757 184.243C237.883 185.368 239.409 186 241 186ZM240.845 182.427L244.179 178.427L243.155 177.573L240.288 181.013L238.805 179.529L237.862 180.471L239.862 182.471L240.378 182.987L240.845 182.427Z" fill="#0A1B04"/>
<line x1="25" y1="165.5" x2="157" y2="165.5" stroke="#D9D9D9"/>
<defs>
<filter id="filter0_d_0_1" x="20" y="58" width="142" height="68" filterUnits="userSpaceOnUse" color-interpolation-filters="sRGB">
<feFlood flood-opacity="0" result="BackgroundImageFix"/>
<feColorMatrix in="SourceAlpha" type="matrix" values="0 0 0 0 0 0 0 0 0 0 0 0 0 0 0 0 0 0 127 0" result="hardAlpha"/>
<feOffset dy="2"/>
<feGaussianBlur stdDeviation="2"/>
<feComposite in2="hardAlpha" operator="out"/>
<feColorMatrix type="matrix" values="0 0 0 0 0.0392157 0 0 0 0 0.105882 0 0 0 0 0.0156863 0 0 0 0.04 0"/>
<feBlend mode="normal" in2="BackgroundImageFix" result="effect1_dropShadow_0_1"/>
<feBlend mode="normal" in="SourceGraphic" in2="effect1_dropShadow_0_1" result="shape"/>
</filter>
<filter id="filter1_d_0_1" x="20" y="134" width="142" height="68" filterUnits="userSpaceOnUse" color-interpolation-filters="sRGB">
<feFlood flood-opacity="0" result="BackgroundImageFix"/>
<feColorMatrix in="SourceAlpha" type="matrix" values="0 0 0 0 0 0 0 0 0 0 0 0 0 0 0 0 0 0 127 0" result="hardAlpha"/>
<feOffset dy="2"/>
<feGaussianBlur stdDeviation="2"/>
<feComposite in2="hardAlpha" operator="out"/>
<feColorMatrix type="matrix" values="0 0 0 0 0.0392157 0 0 0 0 0.105882 0 0 0 0 0.0156863 0 0 0 0.04 0"/>
<feBlend mode="normal" in2="BackgroundImageFix" result="effect1_dropShadow_0_1"/>
<feBlend mode="normal" in="SourceGraphic" in2="effect1_dropShadow_0_1" result="shape"/>
</filter>
<filter id="filter2_d_0_1" x="170" y="58" width="142" height="68" filterUnits="userSpaceOnUse" color-interpolation-filters="sRGB">
<feFlood flood-opacity="0" result="BackgroundImageFix"/>
<feColorMatrix in="SourceAlpha" type="matrix" values="0 0 0 0 0 0 0 0 0 0 0 0 0 0 0 0 0 0 127 0" result="hardAlpha"/>
<feOffset dy="2"/>
<feGaussianBlur stdDeviation="2"/>
<feComposite in2="hardAlpha" operator="out"/>
<feColorMatrix type="matrix" values="0 0 0 0 0.0392157 0 0 0 0 0.105882 0 0 0 0 0.0156863 0 0 0 0.04 0"/>
<feBlend mode="normal" in2="BackgroundImageFix" result="effect1_dropShadow_0_1"/>
<feBlend mode="normal" in="SourceGraphic" in2="effect1_dropShadow_0_1" result="shape"/>
</filter>
<filter id="filter3_d_0_1" x="170" y="134" width="142" height="68" filterUnits="userSpaceOnUse" color-interpolation-filters="sRGB">
<feFlood flood-opacity="0" result="BackgroundImageFix"/>
<feColorMatrix in="SourceAlpha" type="matrix" values="0 0 0 0 0 0 0 0 0 0 0 0 0 0 0 0 0 0 127 0" result="hardAlpha"/>
<feOffset dy="2"/>
<feGaussianBlur stdDeviation="2"/>
<feComposite in2="hardAlpha" operator="out"/>
<feColorMatrix type="matrix" values="0 0 0 0 0.0392157 0 0 0 0 0.105882 0 0 0 0 0.0156863 0 0 0 0.04 0"/>
<feBlend mode="normal" in2="BackgroundImageFix" result="effect1_dropShadow_0_1"/>
<feBlend mode="normal" in="SourceGraphic" in2="effect1_dropShadow_0_1" result="shape"/>
</filter>
<linearGradient id="paint0_linear_0_1" x1="166" y1="36" x2="166" y2="216" gradientUnits="userSpaceOnUse">
<stop stop-color="#F1F5F9"/>
<stop offset="1" stop-color="#F1F5F9" stop-opacity="0"/>
</linearGradient>
<linearGradient id="paint1_linear_0_1" x1="166" y1="36" x2="166" y2="216" gradientUnits="userSpaceOnUse">
<stop stop-color="#D9D9D9"/>
<stop offset="1" stop-color="#D9D9D9" stop-opacity="0"/>
</linearGradient>
</defs>
</svg>
