<?xml version="1.0" encoding="UTF-8"?>
<svg id="Layer_2" data-name="Layer 2" xmlns="http://www.w3.org/2000/svg" viewBox="0 0 999.56 656.17">
  <defs>
    <style>
      .cls-1, .cls-2, .cls-3, .cls-4, .cls-5, .cls-6, .cls-7, .cls-8 {
        fill: none;
      }

      .cls-9 {
        fill: #f4b17f;
      }

      .cls-2, .cls-3, .cls-5, .cls-6 {
        stroke: #242526;
      }

      .cls-2, .cls-3, .cls-8 {
        stroke-width: 2px;
      }

      .cls-2, .cls-4, .cls-5, .cls-6, .cls-7, .cls-8 {
        stroke-miterlimit: 10;
      }

      .cls-10 {
        fill: #f7cd9c;
      }

      .cls-3 {
        stroke-linejoin: round;
      }

      .cls-11 {
        fill: #fff;
      }

      .cls-12 {
        fill: #00799c;
      }

      .cls-4 {
        stroke-dasharray: 0 10;
      }

      .cls-4, .cls-5, .cls-6, .cls-7 {
        stroke-linecap: round;
        stroke-width: 4px;
      }

      .cls-4, .cls-7 {
        stroke: #5780ee;
      }

      .cls-13 {
        fill: #d9f5f9;
      }

      .cls-5 {
        stroke-dasharray: 0 10;
      }

      .cls-14 {
        fill: #53e3b6;
      }

      .cls-15 {
        fill: #242526;
      }

      .cls-16 {
        fill: #1990af;
      }

      .cls-8 {
        stroke: #fff;
      }
    </style>
  </defs>
  <g id="POST_1" data-name="POST 1">
    <g>
      <path class="cls-13" d="M80.73,192.32L604.18,15.84c35.37-11.93,74.88-4.94,103.14,18.25l246.75,202.39c39.82,32.66,46.76,88.19,16.08,128.57l-176.7,232.47c-30.64,40.31-88.9,52.47-134.96,28.15l-250.92-132.44c-42.05-22.2-94.94-14.18-127.35,19.29l-41.19,42.55c-56.6,58.47-160.24,32.28-177.64-44.89L14.7,303.11c-10.63-47.16,17.54-94.44,66.03-110.79Z"/>
      <rect class="cls-1" y="6.52" width="999.56" height="649.64"/>
      <path class="cls-16" d="M112.62,23.14c4.11,0,8.05-3.61,7.86-7.86-.19-4.26-3.45-7.86-7.86-7.86-4.11,0-8.05,3.61-7.86,7.86.19,4.26,3.45,7.86,7.86,7.86h0Z"/>
      <path class="cls-12" d="M44.22,77.29c4.11,0,8.05-3.61,7.86-7.86-.19-4.26-3.45-7.86-7.86-7.86-4.11,0-8.05,3.61-7.86,7.86.19,4.26,3.45,7.86,7.86,7.86h0Z"/>
      <path class="cls-16" d="M939.93,191.46c4.11,0,8.05-3.61,7.86-7.86-.19-4.26-3.45-7.86-7.86-7.86-4.11,0-8.05,3.61-7.86,7.86.19,4.26,3.45,7.86,7.86,7.86h0Z"/>
      <path class="cls-12" d="M839.12,349.95c4.11,0,8.05-3.61,7.86-7.86-.19-4.26-3.45-7.86-7.86-7.86-4.11,0-8.05,3.61-7.86,7.86.19,4.26,3.45,7.86,7.86,7.86h0Z"/>
      <g>
        <path class="cls-10" d="M569.38,152.62c-35.65,25.86-75.15,3.35-75.15,3.35l5.07-31.12,2.11-12.92,26.18-20.7,24.04-19,17.76,80.39Z"/>
        <path class="cls-15" d="M550.84,84.24c-6.29,26.17-13.98,38.43-26.42,41.63-9.78,2.53-21.29-.01-25.11-1.01l2.11-12.92,26.18-20.7,23.25-7Z"/>
        <path class="cls-10" d="M547.6,91.16l-21.19,20.57c-2.28,2.22-5.44,3.31-8.63,2.99l-18.85-1.95c-5.5-.57-9.67-5.2-9.69-10.73l-.02-14.74-.03-16.07-.03-24.77c-.05-21.28,19.01-27.58,19.01-27.58,15.08-3.55,25.75,2,31.59,6.56,3.23,2.54,5.34,6.26,5.95,10.34l6.33,42.21c.73,4.85-.94,9.75-4.46,13.16Z"/>
        <path class="cls-10" d="M571.77,64.19c1.83,7.51-2.78,15.08-10.29,16.91-7.51,1.83-18.18-3.3-20-10.81-1.83-7.51,5.87-14.57,13.38-16.39,7.51-1.83,15.08,2.78,16.91,10.29Z"/>
        <path class="cls-12" d="M710.23,419.54l-7.75,1.74-146.62,32.92-120.09-36.85-5.59-57.51-87.86,55.91-36.74-120.61,120.35-119.61c6.39-6.35,14.63-10.52,23.53-11.91l43.81-6.86,63.61-7.77,82.9,15.31c20.57,4.99,37.98,18.64,47.74,37.42l64.85,124.95.56,1.07c19.33,37.21-1.81,82.63-42.71,91.8Z"/>
        <polygon class="cls-11" points="185.4 212.2 328.2 198.2 331.36 269.52 349.18 355.16 371.26 418.09 225.93 428.4 209.79 388.01 190.81 285.8 185.4 212.2"/>
        <g>
          <path class="cls-12" d="M418.96,471.02l111.76,49.71c3.88,3.95,4.2,17.22-3.91,18.97l-176.86,38.15c-10.91,2.35-25.52-.89-32.5-7.32l-80.03-73.7c-3.92-3.61-4.13-14.66,1.43-17.68l157.03-11.88c7.09-.98,17.34.67,23.08,3.75Z"/>
          <path class="cls-16" d="M418.96,459.96l106.57,57.03c8.67,4.64,9.39,9.9,1.28,11.65l-176.86,38.15c-10.91,2.35-25.52-.89-32.5-7.32l-80.03-73.7c-3.92-3.61.08-7.67,8.99-8.9l149.46-20.66c7.09-.98,17.34.67,23.08,3.75Z"/>
          <polygon class="cls-12" points="370.87 514.83 399.21 535.15 366.69 541.21 339.46 520.2 370.87 514.83"/>
          <polygon class="cls-8" points="404.8 509.02 434.26 528.6 403.14 534.41 374.67 514.18 404.8 509.02"/>
          <polygon class="cls-8" points="437.37 503.45 467.84 522.34 438.03 527.9 408.45 508.4 437.37 503.45"/>
          <polygon class="cls-8" points="468.65 498.09 500.04 516.33 471.45 521.66 440.87 502.85 468.65 498.09"/>
          <polygon class="cls-14" points="342.26 494.32 367.62 512.5 336.34 517.8 312.03 499.04 342.26 494.32"/>
          <polygon class="cls-8" points="374.99 489.21 401.41 506.77 371.41 511.85 345.93 493.75 374.99 489.21"/>
          <polygon class="cls-8" points="406.47 484.29 433.86 501.27 405.05 506.15 378.51 488.66 406.47 484.29"/>
          <polygon class="cls-8" points="436.77 479.56 465.04 495.99 437.35 500.68 409.86 483.76 436.77 479.56"/>
          <polygon class="cls-14" points="316.52 475.86 339.34 492.22 309.23 496.88 287.4 480.03 316.52 475.86"/>
          <polygon class="cls-12" points="348.11 471.35 371.94 487.18 342.99 491.66 320.06 475.36 348.11 471.35"/>
          <polygon class="cls-12" points="378.56 466.99 403.31 482.34 375.45 486.64 351.52 470.86 378.56 466.99"/>
          <polygon class="cls-12" points="407.92 462.8 433.51 477.67 406.69 481.81 381.84 466.52 407.92 462.8"/>
          <polygon class="cls-11" points="253.7 484.33 329.77 551.61 362.06 544.94 281.14 480.41 253.7 484.33"/>
        </g>
        <g>
          <path class="cls-10" d="M505.52,375.05l-104.65,7.95s6.29,27.82,29.81,26.49l-33.45,11.59-26.83,47.37s7.7,6.45,19.53,3.71c5.69-1.32,10.74-4.59,14.58-9l12.31-14.12,10.87,36.95,58.95,27.49,26.09-7.62s-1.7-15.08-13.96-17.73l3.68-25.38s34.92,10.89,53.39-8.56l-50.34-79.15Z"/>
          <line class="cls-2" x1="457.26" y1="423.25" x2="416.83" y2="449.05"/>
          <polyline class="cls-2" points="478.26 427.05 441.33 451.62 451.25 496.98"/>
          <polyline class="cls-2" points="503.75 433.77 468.71 454.2 477.42 508.21"/>
          <line class="cls-2" x1="470.41" y1="394.3" x2="430.67" y2="409.5"/>
        </g>
        <path class="cls-10" d="M190.81,285.8l38.88,20.01c6.24,3.21,9.53,10.22,8.02,17.07l-2.89,13.11,3.05,1.25c6.43,2.64,10.02,9.53,8.5,16.31l-3.56,15.9-1.23,5.37c-1.72,8.01-9.83,12.92-17.72,10.75h0l-.15.93c-1.55,9.47-10.33,12.99-18.91,8.7l-23.55-13-5.4-4.89c-3.53-4.92-3.08-13.33-2.83-19.39l3.24-76.48,13.55-9.21,1,13.57Z"/>
        <line class="cls-2" x1="188.77" y1="316.67" x2="234.82" y2="335.99"/>
        <line class="cls-2" x1="188.77" y1="343.68" x2="243.45" y2="366.64"/>
        <line class="cls-2" x1="223.87" y1="385.57" x2="187.52" y2="367.88"/>
        <line class="cls-2" x1="185.4" y1="283.29" x2="209.51" y2="295.43"/>
        <path class="cls-12" d="M487.7,160.45l4.42-31.1,77.26-1.44,6.03,27.92s-51.02,37.74-87.71,4.62Z"/>
        <line class="cls-2" x1="690.05" y1="312.62" x2="505.52" y2="375.05"/>
        <line class="cls-2" x1="629.48" y1="276.64" x2="641.14" y2="329.17"/>
        <line class="cls-2" x1="426.2" y1="240.09" x2="430.17" y2="359.84"/>
        <path class="cls-15" d="M496.29,69.6c0,.98-.79,1.77-1.77,1.77s-1.77-.79-1.77-1.77.79-1.77,1.77-1.77,1.77.79,1.77,1.77Z"/>
        <path class="cls-15" d="M521.42,68.97c0,.98-.79,1.77-1.77,1.77s-1.77-.79-1.77-1.77.79-1.77,1.77-1.77,1.77.79,1.77,1.77Z"/>
        <circle class="cls-9" cx="531.81" cy="77.89" r="8.45" transform="translate(256.34 539.41) rotate(-67.5)"/>
        <path class="cls-9" d="M495.04,79.28c0,3.73-2.43,6.91-5.8,8.03l-.03-16.07c3.39,1.1,5.83,4.29,5.83,8.04Z"/>
        <path class="cls-2" d="M507.36,62.65l-8.89,18.49,8.79.56-4.39,6.66s18.72,3.61,25.6-5.3"/>
        <path class="cls-2" d="M481.6,61.49h19.44v12.63c0,1.08-.88,1.96-1.96,1.96h-14.79c-1.49,0-2.69-1.21-2.69-2.69v-11.9h0Z"/>
        <path class="cls-2" d="M513.22,61.49h14.79c1.08,0,1.96.88,1.96,1.96v12.63h-19.44v-11.9c0-1.49,1.21-2.69,2.69-2.69Z" transform="translate(1040.51 137.57) rotate(180)"/>
        <path class="cls-2" d="M501.04,63.11s4.26-2.08,9.49,0"/>
        <line class="cls-2" x1="530.43" y1="61.49" x2="551.98" y2="56.76"/>
        <path class="cls-3" d="M561.7,61.49l-5.49,4.08c-.88.66-.47,2.06.63,2.13l6.45.42"/>
        <path class="cls-15" d="M557.66,16.41c4.66.5,5.62,9.57,5.62,9.57l-1.54,27.86-8.13,12.43c-20.39-5.57-17.11-30.43-17.11-30.43-28.93,19.5-59.78,7.07-59.78,7.07-4.5-1.68-7.67-6.61-7.51-11.41.16-4.8,3.63-9.32,8.23-10.71-.88-3.16.16-6.68,2.25-9.21,2.09-2.53,5.16-4.13,8.36-4.88,3.2-.75,6.53-.7,9.8-.34,3.23-3.57,8.41-5.82,13.2-6.27,4.8-.46,9.74.95,13.59,3.85l33.02,12.48Z"/>
        <line class="cls-2" x1="501.3" y1="134.83" x2="498.72" y2="165.39"/>
        <line class="cls-2" x1="559.53" y1="134.02" x2="562.84" y2="163.96"/>
        <line class="cls-2" x1="520.7" y1="135.41" x2="520.7" y2="168.88"/>
        <line class="cls-2" x1="545.93" y1="134.49" x2="547.85" y2="166.51"/>
        <line class="cls-2" x1="565.86" y1="133.27" x2="571.07" y2="161.72"/>
        <line class="cls-2" x1="495.27" y1="134.02" x2="490.66" y2="162.15"/>
        <line class="cls-2" x1="331.36" y1="269.52" x2="209.79" y2="280.92"/>
        <line class="cls-2" x1="349.18" y1="355.16" x2="257.04" y2="361.91"/>
        <path class="cls-16" d="M710.23,419.54l-7.75,1.74c-4.7-8.98-7.35-19.19-7.35-30.03,0-33.28,25-60.73,57.25-64.58l.56,1.07c19.33,37.21-1.81,82.63-42.71,91.8Z"/>
      </g>
      <rect class="cls-2" x="149.34" y="55.25" width="12.49" height="12.49" transform="translate(89.05 -92) rotate(45)"/>
      <rect class="cls-2" x="819.51" y="412.48" width="12.49" height="12.49" transform="translate(537.94 -461.25) rotate(45)"/>
      <g>
        <line class="cls-6" x1="138.6" y1="149.34" x2="138.6" y2="149.34"/>
        <path class="cls-5" d="M147.18,144.19c19.24-10.27,41.82-14.26,63.4-10.99,25.14,3.8,48.31,16.92,73.61,19.43,21.03,2.09,42.73-3.62,60.08-15.66"/>
        <line class="cls-6" x1="348.29" y1="134" x2="348.29" y2="134"/>
      </g>
      <g>
        <line class="cls-7" x1="680.8" y1="491.19" x2="680.8" y2="491.19"/>
        <path class="cls-4" d="M689.37,486.04c19.24-10.27,41.82-14.26,63.4-10.99,25.14,3.8,48.31,16.92,73.61,19.43,21.03,2.09,42.73-3.61,60.08-15.66"/>
        <line class="cls-7" x1="890.49" y1="475.85" x2="890.49" y2="475.85"/>
      </g>
      <path class="cls-2" d="M851.41,6.92c33.47,42.16,26.44,103.47-15.72,136.95-42.16,33.47-103.47,26.44-136.95-15.72"/>
      <path class="cls-2" d="M12.46,441.79c24.19-48.09,82.79-67.46,130.88-43.27,48.09,24.19,67.46,82.79,43.27,130.88"/>
    </g>
  </g>
</svg>