<svg xmlns="http://www.w3.org/2000/svg" version="1.1" xmlns:xlink="http://www.w3.org/1999/xlink" width="512" height="512" x="0" y="0" viewBox="0 0 512 512" style="enable-background:new 0 0 512 512" xml:space="preserve" class=""><g><g fill-rule="evenodd" clip-rule="evenodd"><path fill="#0ac963" d="M168.584 0h173.368l153.091 153.091v293.98c0 35.698-29.231 64.929-64.929 64.929h-261.53c-35.698 0-64.929-29.231-64.929-64.929V64.929C103.655 29.231 132.887 0 168.584 0z" opacity="1" data-original="#0ac963"></path><path fill="#08a14f" d="m341.953 0 153.091 153.091H358.485c-9.1 0-16.532-7.432-16.532-16.532zM31.207 218.02h352.618c7.813 0 14.25 6.408 14.25 14.25v129.36c0 7.842-6.437 14.25-14.25 14.25H31.207c-7.842 0-14.25-6.408-14.25-14.25V232.27c-.001-7.842 6.408-14.25 14.25-14.25z" opacity="1" data-original="#08a14f"></path></g><path fill="#ffffff" d="M119.924 244.399H93.326a8.266 8.266 0 0 0-8.266 8.266v88.542a8.266 8.266 0 0 0 16.532 0v-25.94h18.331c19.225 0 34.864-15.64 34.864-34.863v-1.141c.001-19.224-15.639-34.864-34.863-34.864zm18.332 36.004c0 10.108-8.224 18.331-18.332 18.331h-18.331V260.93h18.331c10.109 0 18.332 8.224 18.332 18.331zm104.05-27.738v88.542a8.267 8.267 0 0 1-15.352 4.257l-37.844-62.99v58.733a8.266 8.266 0 0 1-16.532 0v-88.542a8.267 8.267 0 0 1 15.351-4.257l37.844 62.99v-58.733a8.266 8.266 0 0 1 16.533 0zm87.664 48.367v25.632c0 12.577-10.245 22.809-22.837 22.809h-24.081c-12.577 0-22.809-10.232-22.809-22.809v-59.428c0-12.593 10.232-22.837 22.809-22.837h24.081c12.593 0 22.837 10.245 22.837 22.837a8.266 8.266 0 0 1-16.532 0 6.312 6.312 0 0 0-6.305-6.305h-24.081c-3.402 0-6.277 2.887-6.277 6.305v59.428c0 3.402 2.875 6.277 6.277 6.277h24.081c3.418 0 6.305-2.875 6.305-6.277v-17.366h-18.331a8.266 8.266 0 0 1 0-16.532h26.597c4.566 0 8.266 3.7 8.266 8.266z" opacity="1" data-original="#ffffff"></path></g></svg>