<?xml version="1.0" encoding="UTF-8"?>
<svg id="Layer_2" data-name="Layer 2" xmlns="http://www.w3.org/2000/svg" viewBox="0 0 459.93 418.31">
  <defs>
    <style>
      .cls-1, .cls-2 {
        fill: #3d85fd;
      }

      .cls-1, .cls-3, .cls-4 {
        opacity: .58;
      }

      .cls-5, .cls-3 {
        fill: #ffb44f;
      }

      .cls-6 {
        stroke: #fff;
        stroke-width: 2px;
      }

      .cls-6, .cls-7, .cls-8 {
        fill: #233863;
      }

      .cls-6, .cls-9 {
        stroke-miterlimit: 10;
      }

      .cls-7 {
        opacity: .36;
      }

      .cls-10 {
        fill: #3aaed5;
      }

      .cls-11, .cls-12 {
        opacity: .47;
      }

      .cls-11, .cls-13 {
        fill: #bfdde8;
      }

      .cls-14 {
        stroke: #f2f9ff;
        stroke-linejoin: round;
      }

      .cls-14, .cls-9 {
        fill: none;
        stroke-linecap: round;
        stroke-width: 3px;
      }

      .cls-15 {
        fill: #fff;
      }

      .cls-16 {
        fill: #5a6f8e;
      }

      .cls-17, .cls-4 {
        fill: #2f4770;
      }

      .cls-18 {
        fill: #f2f9ff;
      }

      .cls-19 {
        opacity: .86;
      }

      .cls-20 {
        opacity: .85;
      }

      .cls-21 {
        opacity: .81;
      }

      .cls-22 {
        opacity: .44;
      }

      .cls-23 {
        opacity: .41;
      }

      .cls-24 {
        opacity: .31;
      }

      .cls-25 {
        opacity: .11;
      }

      .cls-9 {
        stroke: #233863;
      }
    </style>
  </defs>
  <g id="BACKGROUND">
    <g class="cls-20">
      <g>
        <g class="cls-23">
          <path class="cls-13" d="M459.7,268.5c.43-7.37.24-14.78-.59-22.11-3.9-34.45-21.58-66.94-47.59-89.86-9.28-8.18-19.84-15.5-25.88-26.3-10.17-18.18-9.4-39.07-22.02-57.02-12.64-17.97-31.05-31.98-51.82-39.18-61.93-21.46-148.62,13.48-140.82,88.09.03.27.06.66.09,1.15,1.04,15.5-11.13,28.53-26.61,28.9-57.14,1.36-106.32,45.41-116.84,101.21-6.77,35.89,4.31,75.22,30.56,100.6,19.59,18.95,45.89,29.36,72.19,36.51,52.74,14.34,108.24,17.35,162.62,11.86,50.9-5.13,104.59-19.77,137.51-58.93,17.56-20.89,27.62-47.68,29.2-74.94Z"/>
        </g>
        <g class="cls-24">
          <circle class="cls-13" cx="198.01" cy="15.41" r="13.29" transform="translate(9.17 76.95) rotate(-22.5)"/>
        </g>
        <g class="cls-24">
          <circle class="cls-13" cx="377.63" cy="7.31" r="6.86"/>
        </g>
        <g class="cls-24">
          <circle class="cls-13" cx="135.51" cy="45.17" r="9.19" transform="translate(7.75 109.05) rotate(-45)"/>
        </g>
      </g>
    </g>
    <g class="cls-20">
      <g>
        <g>
          <g class="cls-12">
            <path class="cls-13" d="M3.59,53.75c-5.97-11.62-1.38-25.88,10.24-31.84,11.62-5.97,33.95-5.53,39.92,6.09s-11.92,21.59-19.21,32.43c-10.17,15.11-24.98,4.94-30.94-6.68Z"/>
          </g>
          <g class="cls-12">
            <path class="cls-13" d="M58.4,414.98c-9.65,6.23-22.53,3.46-28.77-6.2-6.23-9.65-7.79-29.24,1.86-35.48,9.65-6.23,19.94,8.56,30.06,14,14.12,7.59,6.5,21.44-3.16,27.67Z"/>
          </g>
        </g>
        <g>
          <g class="cls-12">
            <path class="cls-13" d="M448.55,100.27c8.24,17.9,10.5,38.53,6.54,57.82-4.65,22.68-18.77,40.1-13.87,64.29,2.98,14.74,3.73,28.39,5.24,42.97,3.11,29.94-16.33,56.32-40.45,70.57-19.59,11.57-42.55,15.91-65.07,15.6-20.27-.28-40.5-4.02-60.14-9.05-18.93-4.85-37.43-11.24-57.27-9.22-16.5,1.68-31.36,8.81-46.73,14.13-36.69,12.7-81.12,14.49-114.67-4.84-21.53-12.41-36.6-32.55-43.28-54.22-5.34-17.31-6.02-33.5-2.02-51.18,4.11-18.15,11.05-36.44,8.9-55.35-1.5-13.18-7.53-25.89-6.42-39.11.73-8.78,4.6-17.02,9.33-24.45,17.26-27.15,46.17-45.33,76.74-55.34,28.77-9.43,58.45-16.25,88.4-13.98,61.94,4.69,74.56-5.15,137.86-18.69,40.86-8.74,86.57,22.42,110.48,58.51,2.44,3.68,4.58,7.54,6.42,11.54Z"/>
          </g>
          <g class="cls-21">
            <path class="cls-13" d="M405.93,128.16c1.27,14.29-3.55,29.02.48,43.17,4.82,16.95,18.79,29.64,24.48,46.28,8.41,24.58,8.01,52.13-2.21,76.09-4.92,11.55-12.11,22.27-21.93,29.69-15.14,11.44-34.98,13.95-53.63,12.5-27.76-2.16-57.06-14.18-84.97-10.9-15.4,1.81-20.11,18.48-28.06,29.48-9,12.44-21.25,22.21-34.8,28.71-24.95,11.98-54.9,13.11-80.4,2.25-27.23-11.6-50.96-39.91-49.4-71.94.72-14.82,6.65-29.53,3.91-44.09-3.45-18.27-17.21-34.92-27.19-49.8-11.02-16.44-17.69-36.04-18.99-56.04-.01-.23-.03-.45-.04-.68-2.05-34.5,19.72-65.97,52.55-76.77,0,0,69.86-22.98,69.86-22.98,70.89-23.31,141.71-22.54,206.89,11.67,14.1,7.4,37.07,29.46,41.8,44.67.89,2.87,1.4,5.77,1.66,8.68Z"/>
          </g>
        </g>
      </g>
    </g>
    <circle class="cls-4" cx="448.5" cy="360.38" r="4.5"/>
    <circle class="cls-1" cx="299.92" cy="5.2" r="4.75"/>
    <circle class="cls-4" cx="86.37" cy="412.88" r="4.5"/>
    <circle class="cls-3" cx="362.09" cy="413.81" r="3.5"/>
    <circle class="cls-3" cx="79.59" cy="35.98" r="3.5"/>
    <circle class="cls-1" cx="51.66" cy="74.57" r="1.5"/>
    <path class="cls-1" d="M117.32,2.56c-.24,1.14-1.37,1.87-2.52,1.63-1.14-.24-1.87-1.37-1.63-2.52.24-1.14,1.37-1.87,2.52-1.63,1.14.24,1.87,1.37,1.63,2.52Z"/>
    <path class="cls-3" d="M459.06,197.72c-.24,1.14-1.37,1.87-2.52,1.63-1.14-.24-1.87-1.37-1.63-2.52.24-1.14,1.37-1.87,2.52-1.63,1.14.24,1.87,1.37,1.63,2.52Z"/>
    <path class="cls-4" d="M438.61,68.68c-.21.97-1.16,1.59-2.14,1.39-.97-.21-1.59-1.16-1.39-2.14s1.16-1.59,2.14-1.39c.97.21,1.59,1.16,1.39,2.14Z"/>
    <path class="cls-3" d="M419.41,21.2c0,3.79-3.07,6.86-6.86,6.86s-6.86-3.07-6.86-6.86,3.07-6.86,6.86-6.86,6.86,3.07,6.86,6.86Z"/>
    <path class="cls-11" d="M10.97,232.35c0,3.03-2.46,5.49-5.49,5.49s-5.49-2.46-5.49-5.49,2.46-5.49,5.49-5.49,5.49,2.46,5.49,5.49Z"/>
    <g class="cls-19">
      <g>
        <g class="cls-22">
          <rect class="cls-18" x="108.57" y="95.48" width="249.23" height="249.23" rx="124.61" ry="124.61"/>
        </g>
        <g class="cls-19">
          <rect class="cls-18" x="108.57" y="95.48" width="249.23" height="249.23" rx="124.61" ry="124.61"/>
        </g>
        <path class="cls-14" d="M115.25,152.64s12.85-29.37,49.56-49.56"/>
        <path class="cls-14" d="M273.1,348.12s55.07-14.68,75.26-59.65"/>
        <g class="cls-19">
          <path class="cls-14" d="M304.77,109.05s29.37,12.85,49.56,49.56"/>
        </g>
        <g class="cls-19">
          <path class="cls-14" d="M109.29,266.9s14.68,55.07,59.65,75.26"/>
        </g>
      </g>
    </g>
  </g>
  <g id="OBJECTS">
    <g>
      <g>
        <path class="cls-8" d="M220.25,330.3l3.25,1.02c4.45,1.39,9.23-1.12,10.62-5.57l74.19-237.65c1.39-4.45-1.12-9.23-5.57-10.62l-3.25-1.02c-4.45-1.39-9.23,1.12-10.62,5.57l-74.19,237.65c-1.39,4.45,1.12,9.23,5.57,10.62Z"/>
        <path class="cls-8" d="M226.02,333.2c-1,0-1.99-.15-2.97-.46l-3.25-1.01h0c-2.54-.79-4.62-2.53-5.86-4.9-1.24-2.37-1.49-5.07-.7-7.6l74.19-237.65c.79-2.54,2.53-4.62,4.9-5.86,2.37-1.24,5.07-1.49,7.6-.7l3.25,1.02c5.25,1.64,8.19,7.25,6.55,12.5l-74.19,237.65c-.79,2.54-2.53,4.62-4.9,5.86-1.46.76-3.04,1.15-4.64,1.15Z"/>
      </g>
      <g>
        <path class="cls-17" d="M347.99,385.86l-109.89-34.3c-11.85-3.7-18.46-16.31-14.76-28.16l73.64-235.9c3.7-11.85,16.31-18.46,28.16-14.76l109.89,34.3c11.85,3.7,18.46,16.31,14.76,28.16l-73.64,235.9c-3.7,11.85-16.31,18.46-28.16,14.76Z"/>
        <path class="cls-8" d="M354.67,388.38c-2.36,0-4.76-.35-7.13-1.09h0l-109.89-34.3c-6.11-1.91-11.12-6.08-14.09-11.76-2.97-5.67-3.56-12.17-1.65-18.28l73.64-235.9c3.94-12.62,17.41-19.69,30.04-15.74l109.89,34.3c12.62,3.94,19.68,17.41,15.74,30.04l-73.64,235.9c-3.2,10.25-12.69,16.84-22.9,16.84ZM348.43,384.43c5.35,1.67,11.03,1.16,15.99-1.45,4.96-2.6,8.62-6.98,10.29-12.33l73.64-235.9c3.45-11.04-2.73-22.83-13.78-26.28l-109.89-34.3c-11.04-3.45-22.83,2.73-26.28,13.78l-73.64,235.9c-1.67,5.35-1.16,11.03,1.45,15.99,2.6,4.96,6.98,8.62,12.33,10.29l109.89,34.3Z"/>
      </g>
      <g>
        <rect class="cls-15" x="308.36" y="94.71" width="98.47" height="134.38" transform="translate(96.49 455.01) rotate(-72.66)"/>
        <path class="cls-8" d="M407.06,230.42c-.15,0-.3-.02-.45-.07l-128.27-40.04c-.38-.12-.7-.38-.88-.74-.19-.35-.22-.76-.1-1.14l29.34-94c.12-.38.38-.7.74-.88.35-.18.76-.22,1.14-.1l128.27,40.04c.38.12.7.38.88.74.19.35.22.76.1,1.14l-29.34,94c-.2.64-.79,1.05-1.43,1.05ZM280.67,187.9l125.41,39.15,28.45-91.14-125.41-39.15-28.45,91.14Z"/>
      </g>
      <path class="cls-15" d="M420.94,117.37c-.1,0-.2-.02-.3-.05l-89.54-27.95c-.53-.16-.82-.73-.66-1.25.16-.53.73-.82,1.25-.66l89.54,27.95c.53.16.82.73.66,1.25-.13.43-.53.7-.95.7Z"/>
      <g>
        <rect class="cls-5" x="318.85" y="102.28" width="6.24" height="23.28" rx="1.18" ry="1.18" transform="translate(117.28 387.31) rotate(-72.66)"/>
        <path class="cls-8" d="M331.38,121.07c-.22,0-.44-.03-.65-.1h0l-19.97-6.23c-1.15-.36-1.79-1.58-1.43-2.73l1.16-3.7c.17-.56.55-1.01,1.07-1.28.52-.27,1.11-.32,1.66-.15l19.97,6.23c.56.17,1.01.55,1.28,1.07.27.52.32,1.11.15,1.66l-1.15,3.7c-.17.56-.55,1.01-1.07,1.28-.32.17-.66.25-1.01.25ZM331.32,119.06c.09.03.2-.02.23-.12l1.15-3.7c.03-.08-.04-.2-.12-.23l-19.97-6.23c-.08-.02-.2.04-.23.12l-1.16,3.7c-.03.1.02.2.12.23l19.97,6.23Z"/>
      </g>
      <g>
        <rect class="cls-5" x="348.52" y="111.54" width="6.24" height="23.28" rx="1.18" ry="1.18" transform="translate(129.27 422.15) rotate(-72.66)"/>
        <path class="cls-8" d="M361.05,130.34c-.22,0-.44-.03-.65-.1h0l-19.97-6.23c-1.15-.36-1.79-1.58-1.43-2.73l1.15-3.7c.36-1.15,1.58-1.79,2.73-1.43l19.97,6.23c.56.17,1.01.55,1.28,1.07.27.52.32,1.11.15,1.66l-1.16,3.7c-.17.56-.55,1.01-1.07,1.28-.32.17-.66.25-1.01.25ZM361,128.33c.08.03.2-.04.23-.12l1.16-3.7c.03-.08-.04-.2-.12-.23l-19.97-6.23c-.08-.02-.2.04-.23.12l-1.15,3.7c-.03.1.02.2.12.23l19.97,6.23Z"/>
      </g>
      <g>
        <rect class="cls-5" x="380.43" y="121.51" width="6.24" height="23.28" rx="1.18" ry="1.18" transform="translate(142.16 459.6) rotate(-72.66)"/>
        <path class="cls-8" d="M392.96,140.3c-.21,0-.43-.03-.65-.1h0l-19.97-6.23c-1.15-.36-1.79-1.58-1.43-2.73l1.15-3.7c.17-.56.55-1.01,1.07-1.28.52-.27,1.11-.32,1.66-.15l19.97,6.23c1.15.36,1.79,1.58,1.43,2.73l-1.16,3.7c-.29.93-1.15,1.53-2.08,1.53ZM392.91,138.29c.09.03.2-.02.23-.12l1.16-3.7c.03-.1-.02-.2-.12-.23l-19.97-6.23c-.08-.03-.2.04-.23.12l-1.15,3.7c-.03.1.02.2.12.23l19.97,6.23Z"/>
      </g>
      <g>
        <rect class="cls-5" x="410.48" y="130.88" width="6.24" height="23.28" rx="1.18" ry="1.18" transform="translate(154.3 494.86) rotate(-72.66)"/>
        <path class="cls-8" d="M423.01,149.68c-.22,0-.44-.03-.65-.1h0l-19.97-6.23c-.56-.17-1.01-.55-1.28-1.07-.27-.52-.32-1.11-.15-1.66l1.15-3.7c.36-1.15,1.58-1.79,2.73-1.43l19.97,6.23c1.15.36,1.79,1.58,1.43,2.73l-1.16,3.7c-.17.56-.55,1.01-1.07,1.28-.32.17-.66.25-1.01.25ZM422.95,147.67c.09.03.2-.02.23-.12l1.16-3.7c.03-.1-.02-.2-.12-.23l-19.97-6.23c-.1-.03-.2.02-.23.12l-1.15,3.7c-.03.08.04.2.12.23l19.97,6.23Z"/>
      </g>
      <g>
        <rect class="cls-8" x="325.36" y="161.07" width="24.2" height="130.72" transform="translate(20.76 481.08) rotate(-72.66)"/>
        <path class="cls-8" d="M396.24,258.95c-.15,0-.3-.02-.45-.07l-124.78-38.95c-.79-.25-1.23-1.09-.98-1.88l7.21-23.1c.12-.38.38-.7.74-.88.35-.19.76-.22,1.14-.1l124.78,38.95c.79.25,1.23,1.09.98,1.88l-7.21,23.1c-.12.38-.38.7-.74.88-.22.11-.46.17-.7.17ZM273.34,217.51l121.91,38.06,6.32-20.23-121.91-38.06-6.32,20.23Z"/>
      </g>
      <path class="cls-15" d="M313.43,224.51c-.25,0-.5-.04-.74-.11l-22.14-6.91c-1.32-.41-2.05-1.82-1.64-3.13l1.93-6.18c.2-.64.63-1.16,1.23-1.47.59-.31,1.27-.37,1.91-.17l22.14,6.91c.64.2,1.16.63,1.47,1.23.31.59.37,1.27.17,1.91l-1.93,6.18c-.33,1.07-1.32,1.76-2.39,1.76ZM312.98,223.44c.78.25,1.63-.19,1.88-.98l1.93-6.18c.12-.38.08-.79-.1-1.14-.19-.35-.5-.62-.88-.74l-22.14-6.91c-.38-.12-.79-.08-1.14.1-.36.19-.62.5-.74.88l-1.93,6.18c-.25.79.2,1.63.98,1.88l22.14,6.91Z"/>
      <path class="cls-15" d="M347.65,235.2c-.25,0-.5-.04-.75-.11l-22.14-6.91c-.64-.2-1.16-.63-1.47-1.23-.31-.59-.37-1.27-.17-1.91l1.93-6.18c.2-.64.63-1.16,1.23-1.47.59-.31,1.27-.37,1.91-.17l22.14,6.91c.64.2,1.16.63,1.47,1.23.31.59.37,1.27.17,1.91l-1.93,6.18c-.2.64-.63,1.16-1.23,1.47-.36.19-.76.29-1.16.29ZM347.2,234.13c.38.12.79.08,1.14-.1.36-.19.62-.5.74-.88l1.93-6.18c.12-.38.08-.79-.1-1.14-.19-.36-.5-.62-.88-.74l-22.14-6.91c-.38-.12-.79-.08-1.14.1-.36.19-.62.5-.74.88l-1.93,6.18c-.12.38-.08.79.1,1.14.19.35.5.62.88.74l22.14,6.91Z"/>
      <path class="cls-15" d="M382.25,246c-.25,0-.5-.04-.75-.11l-22.14-6.91c-1.32-.41-2.05-1.82-1.64-3.13l1.93-6.18c.2-.64.63-1.16,1.23-1.47s1.27-.37,1.91-.17l22.14,6.91c.64.2,1.16.63,1.47,1.23.31.59.37,1.27.17,1.91l-1.93,6.18c-.2.64-.63,1.16-1.23,1.47-.36.19-.76.29-1.16.29ZM381.8,244.93c.38.12.79.08,1.14-.1.36-.19.62-.5.74-.88l1.93-6.18c.12-.38.08-.79-.1-1.14-.19-.36-.5-.62-.88-.74l-22.14-6.91c-.38-.12-.79-.08-1.14.1-.36.19-.62.5-.74.88l-1.93,6.18c-.25.79.2,1.63.99,1.88l22.14,6.91Z"/>
      <g>
        <rect class="cls-16" x="268.76" y="234.54" width="26.61" height="33.59" rx="8.48" ry="8.48" transform="translate(-41.91 445.69) rotate(-72.66)"/>
        <path class="cls-8" d="M288.56,268.4c-1,0-1.99-.15-2.97-.46l-15.88-4.96c-5.25-1.64-8.19-7.25-6.55-12.5l2.87-9.21c1.64-5.25,7.25-8.19,12.5-6.55l15.88,4.96c5.25,1.64,8.19,7.25,6.55,12.5l-2.87,9.21c-.79,2.54-2.53,4.62-4.9,5.86-1.46.76-3.04,1.15-4.64,1.15ZM275.57,237.28c-2.97,0-5.74,1.92-6.67,4.9l-2.87,9.21c-1.15,3.67.91,7.6,4.58,8.75l15.88,4.96h0c1.77.55,3.66.38,5.32-.49,1.66-.87,2.88-2.32,3.43-4.09l2.87-9.21c1.15-3.67-.91-7.6-4.59-8.75l-15.88-4.95c-.69-.21-1.39-.32-2.08-.32Z"/>
      </g>
      <g>
        <rect class="cls-16" x="312.15" y="248.09" width="26.61" height="33.59" rx="8.48" ry="8.48" transform="translate(-24.38 496.62) rotate(-72.66)"/>
        <path class="cls-8" d="M331.95,281.95c-.99,0-1.99-.15-2.97-.46h0l-15.88-4.96c-5.25-1.64-8.19-7.25-6.55-12.5l2.87-9.21c.79-2.54,2.53-4.62,4.9-5.86,2.37-1.24,5.07-1.49,7.6-.7l15.88,4.96c5.25,1.64,8.19,7.25,6.55,12.5l-2.88,9.21c-.79,2.54-2.53,4.62-4.9,5.86-1.46.76-3.04,1.15-4.64,1.15ZM329.87,278.63c1.77.55,3.66.38,5.32-.49,1.66-.87,2.88-2.32,3.43-4.09l2.88-9.21c.55-1.77.38-3.66-.49-5.32-.87-1.66-2.32-2.88-4.09-3.43l-15.88-4.96c-1.77-.55-3.66-.38-5.32.49-1.66.87-2.88,2.32-3.43,4.09l-2.87,9.21c-.55,1.77-.38,3.66.49,5.32.87,1.66,2.32,2.88,4.09,3.43l15.88,4.96Z"/>
      </g>
      <g>
        <rect class="cls-16" x="354.88" y="261.43" width="26.61" height="33.59" rx="8.48" ry="8.48" transform="translate(-7.11 546.78) rotate(-72.66)"/>
        <path class="cls-8" d="M374.68,295.29c-.98,0-1.98-.15-2.97-.46l-15.88-4.96c-5.25-1.64-8.19-7.25-6.55-12.5l2.87-9.21c.79-2.54,2.53-4.62,4.9-5.86,2.37-1.24,5.07-1.49,7.6-.7l15.88,4.96c5.25,1.64,8.19,7.25,6.55,12.5l-2.87,9.21c-1.33,4.27-5.28,7.01-9.53,7.01ZM361.7,264.16c-1.12,0-2.22.27-3.25.81-1.66.87-2.88,2.32-3.43,4.09l-2.87,9.21c-1.15,3.67.91,7.6,4.58,8.75l15.88,4.96h0c3.67,1.15,7.6-.91,8.75-4.58l2.87-9.21c1.15-3.67-.91-7.6-4.58-8.75l-15.88-4.96c-.68-.21-1.38-.32-2.07-.32Z"/>
      </g>
      <g>
        <rect class="cls-16" x="258.16" y="268.52" width="26.61" height="33.59" rx="8.48" ry="8.48" transform="translate(-81.78 459.42) rotate(-72.66)"/>
        <path class="cls-8" d="M277.95,302.38c-.98,0-1.98-.15-2.97-.45h0l-15.88-4.96c-2.54-.79-4.62-2.53-5.86-4.9-1.24-2.37-1.49-5.07-.7-7.6l2.88-9.21c1.64-5.25,7.24-8.19,12.5-6.55l15.88,4.96c2.54.79,4.62,2.53,5.86,4.9s1.49,5.07.7,7.6l-2.87,9.21c-1.33,4.27-5.28,7.01-9.54,7.01ZM275.88,299.06c3.67,1.14,7.6-.91,8.75-4.58l2.87-9.21c.55-1.77.38-3.66-.49-5.32-.87-1.66-2.32-2.88-4.09-3.43l-15.88-4.96c-1.77-.55-3.66-.38-5.32.49-1.66.87-2.88,2.32-3.43,4.09l-2.88,9.21c-.55,1.77-.38,3.66.49,5.32.87,1.66,2.32,2.88,4.09,3.43l15.88,4.96Z"/>
      </g>
      <g>
        <rect class="cls-16" x="301.54" y="282.06" width="26.61" height="33.59" rx="8.48" ry="8.48" transform="translate(-64.25 510.35) rotate(-72.66)"/>
        <path class="cls-8" d="M321.34,315.92c-.98,0-1.98-.15-2.97-.45h0l-15.88-4.96c-2.54-.79-4.62-2.53-5.86-4.9-1.24-2.37-1.49-5.07-.7-7.6l2.87-9.21c1.64-5.25,7.25-8.19,12.5-6.55l15.88,4.96c2.54.79,4.62,2.53,5.86,4.9,1.24,2.37,1.49,5.07.7,7.6l-2.87,9.21c-1.33,4.27-5.28,7.01-9.54,7.01ZM319.27,312.6c3.67,1.15,7.6-.91,8.75-4.58l2.87-9.21c.55-1.77.38-3.66-.49-5.32-.87-1.66-2.32-2.88-4.09-3.43l-15.88-4.96c-3.67-1.14-7.6.91-8.75,4.58l-2.87,9.21c-.55,1.77-.38,3.66.49,5.32.87,1.66,2.32,2.88,4.09,3.43l15.88,4.96Z"/>
      </g>
      <g>
        <rect class="cls-16" x="344.28" y="295.4" width="26.61" height="33.59" rx="8.48" ry="8.48" transform="translate(-46.99 560.5) rotate(-72.66)"/>
        <path class="cls-8" d="M364.08,329.26c-.98,0-1.98-.15-2.97-.45h0l-15.88-4.96c-5.25-1.64-8.19-7.25-6.55-12.5l2.88-9.21c1.64-5.25,7.24-8.19,12.5-6.55l15.88,4.96c2.54.79,4.62,2.53,5.86,4.9,1.24,2.37,1.49,5.07.7,7.6l-2.87,9.21c-1.33,4.27-5.28,7.01-9.54,7.01ZM362,325.94c3.67,1.15,7.6-.91,8.75-4.58l2.87-9.21c.55-1.77.38-3.66-.49-5.32-.87-1.66-2.32-2.88-4.09-3.43l-15.88-4.96c-1.77-.55-3.66-.38-5.32.49-1.66.87-2.88,2.32-3.43,4.09l-2.88,9.21c-1.15,3.67.91,7.6,4.58,8.75l15.88,4.96Z"/>
      </g>
      <g>
        <rect class="cls-10" x="247.55" y="302.49" width="26.61" height="33.59" rx="8.48" ry="8.48" transform="translate(-121.66 473.15) rotate(-72.66)"/>
        <path class="cls-8" d="M267.35,336.35c-1,0-1.99-.15-2.97-.46h0l-15.88-4.96c-2.54-.79-4.62-2.53-5.86-4.9-1.24-2.37-1.49-5.07-.7-7.6l2.87-9.21c.79-2.54,2.53-4.62,4.9-5.86,2.37-1.24,5.07-1.49,7.6-.7l15.88,4.96c5.25,1.64,8.19,7.25,6.55,12.5l-2.87,9.21c-.79,2.54-2.53,4.62-4.9,5.86-1.46.76-3.04,1.15-4.64,1.15ZM265.27,333.03c1.77.55,3.66.38,5.32-.49,1.66-.87,2.88-2.32,3.43-4.09l2.87-9.21c.55-1.77.38-3.66-.49-5.32-.87-1.66-2.32-2.88-4.09-3.43l-15.88-4.96c-1.77-.55-3.66-.38-5.32.49-1.66.87-2.88,2.32-3.43,4.09l-2.87,9.21c-.55,1.77-.38,3.66.49,5.32.87,1.66,2.32,2.88,4.09,3.43l15.88,4.96Z"/>
      </g>
      <g>
        <rect class="cls-5" x="290.94" y="316.03" width="26.61" height="33.59" rx="8.48" ry="8.48" transform="translate(-104.13 524.07) rotate(-72.66)"/>
        <path class="cls-8" d="M310.74,349.89c-.99,0-1.99-.15-2.97-.46l-15.88-4.96c-2.54-.79-4.62-2.53-5.86-4.9-1.24-2.37-1.49-5.07-.7-7.6l2.88-9.21c.79-2.54,2.53-4.62,4.9-5.86,2.37-1.24,5.07-1.49,7.6-.7l15.88,4.96c5.25,1.64,8.19,7.25,6.55,12.5l-2.87,9.21c-.79,2.54-2.53,4.62-4.9,5.86-1.46.76-3.04,1.15-4.64,1.15ZM297.75,318.77c-1.12,0-2.22.27-3.25.81-1.66.87-2.88,2.32-3.43,4.09l-2.88,9.21c-.55,1.77-.38,3.66.49,5.32.87,1.66,2.32,2.88,4.09,3.43l15.88,4.96h0c1.77.55,3.66.38,5.32-.49,1.66-.87,2.88-2.32,3.43-4.09l2.87-9.21c1.15-3.67-.91-7.6-4.58-8.75l-15.88-4.96c-.68-.21-1.38-.32-2.07-.32Z"/>
      </g>
      <g>
        <rect class="cls-2" x="333.67" y="329.37" width="26.61" height="33.59" rx="8.48" ry="8.48" transform="translate(-86.86 574.23) rotate(-72.66)"/>
        <path class="cls-8" d="M353.47,363.23c-1,0-1.99-.15-2.97-.46h0l-15.88-4.96c-2.54-.79-4.62-2.53-5.86-4.9-1.24-2.37-1.49-5.07-.7-7.6l2.87-9.21c.79-2.54,2.53-4.62,4.9-5.86,2.37-1.24,5.07-1.49,7.6-.7l15.88,4.96c2.54.79,4.62,2.53,5.86,4.9,1.24,2.37,1.49,5.07.7,7.6l-2.87,9.21c-.79,2.54-2.53,4.62-4.9,5.86-1.46.76-3.04,1.15-4.64,1.15ZM351.4,359.92c1.77.55,3.66.38,5.32-.49,1.66-.87,2.88-2.32,3.43-4.09l2.87-9.21c.55-1.77.38-3.66-.49-5.32-.87-1.66-2.32-2.88-4.09-3.43l-15.88-4.96c-1.77-.55-3.66-.38-5.32.49-1.66.87-2.88,2.32-3.43,4.09l-2.87,9.21c-.55,1.77-.38,3.66.49,5.32.87,1.66,2.32,2.88,4.09,3.43l15.88,4.96Z"/>
      </g>
      <g>
        <path class="cls-8" d="M346.25,391.07l-109.68-34.24c-3.54-1.1-5.53-4.9-4.42-8.44h0c1.1-3.54,4.9-5.53,8.44-4.42l109.68,34.24c3.54,1.1,5.53,4.9,4.42,8.44h0c-1.1,3.54-4.9,5.53-8.44,4.42Z"/>
        <path class="cls-8" d="M348.25,392.87c-.81,0-1.63-.12-2.45-.38h0l-109.68-34.24c-4.33-1.35-6.76-5.98-5.41-10.32,1.35-4.33,5.98-6.76,10.32-5.41l109.68,34.24c2.09.65,3.81,2.09,4.83,4.04,1.02,1.95,1.23,4.18.57,6.27-1.1,3.52-4.36,5.78-7.87,5.78ZM346.7,389.63c2.75.86,5.7-.68,6.56-3.44.41-1.33.28-2.74-.37-3.99-.65-1.24-1.74-2.16-3.07-2.57l-109.68-34.24c-2.75-.86-5.7.68-6.56,3.44-.86,2.76.68,5.7,3.44,6.56l109.68,34.24Z"/>
      </g>
      <path class="cls-15" d="M344.5,338.42c0,1.32-1.07,2.38-2.38,2.38s-2.38-1.07-2.38-2.38,1.07-2.38,2.38-2.38,2.38,1.07,2.38,2.38Z"/>
      <path class="cls-15" d="M301.76,325.37c0,1.32-1.07,2.38-2.38,2.38s-2.38-1.07-2.38-2.38,1.07-2.38,2.38-2.38,2.38,1.07,2.38,2.38Z"/>
      <path class="cls-15" d="M256.96,311.06c0,1.32-1.07,2.38-2.38,2.38s-2.38-1.07-2.38-2.38,1.07-2.38,2.38-2.38,2.38,1.07,2.38,2.38Z"/>
      <path class="cls-15" d="M355.96,355.81c0,.68-.55,1.24-1.24,1.24s-1.24-.55-1.24-1.24.55-1.24,1.24-1.24,1.24.55,1.24,1.24Z"/>
      <path class="cls-8" d="M363.33,268.49c0,.88-.71,1.59-1.59,1.59s-1.59-.71-1.59-1.59.71-1.59,1.59-1.59,1.59.71,1.59,1.59Z"/>
      <path class="cls-8" d="M351.93,304.17c0,.88-.71,1.59-1.59,1.59s-1.59-.71-1.59-1.59.71-1.59,1.59-1.59,1.59.71,1.59,1.59Z"/>
      <g>
        <path class="cls-17" d="M402.64,211.43c0,2.3-1.87,4.17-4.17,4.17s-4.17-1.87-4.17-4.17,1.87-4.17,4.17-4.17,4.17,1.87,4.17,4.17Z"/>
        <path class="cls-8" d="M398.47,217.1c-3.13,0-5.67-2.54-5.67-5.67s2.54-5.67,5.67-5.67,5.67,2.54,5.67,5.67-2.54,5.67-5.67,5.67ZM398.47,208.75c-1.47,0-2.67,1.2-2.67,2.67s1.2,2.67,2.67,2.67,2.67-1.2,2.67-2.67-1.2-2.67-2.67-2.67Z"/>
      </g>
    </g>
    <g>
      <g>
        <circle class="cls-8" cx="162.6" cy="344.81" r="50.25"/>
        <g>
          <g>
            <circle class="cls-8" cx="157.77" cy="342.11" r="50.25" transform="translate(-211.44 417.06) rotate(-76.72)"/>
            <g>
              <circle class="cls-5" cx="157.77" cy="342.11" r="50.25" transform="translate(-211.44 417.06) rotate(-76.72)"/>
              <path class="cls-8" d="M157.77,393.86c-28.53,0-51.75-23.21-51.75-51.75s23.21-51.75,51.75-51.75,51.75,23.21,51.75,51.75-23.21,51.75-51.75,51.75ZM157.77,293.36c-26.88,0-48.75,21.87-48.75,48.75s21.87,48.75,48.75,48.75,48.75-21.87,48.75-48.75-21.87-48.75-48.75-48.75Z"/>
            </g>
            <path class="cls-15" d="M157.77,383.58c-22.87,0-41.47-18.6-41.47-41.47s18.6-41.47,41.47-41.47,41.47,18.6,41.47,41.47-18.6,41.47-41.47,41.47ZM157.77,302.64c-21.76,0-39.47,17.71-39.47,39.47s17.71,39.47,39.47,39.47,39.47-17.71,39.47-39.47-17.71-39.47-39.47-39.47Z"/>
            <path class="cls-15" d="M157.3,379.09c-20.39,0-36.98-16.59-36.98-36.98s16.59-36.98,36.98-36.98,36.98,16.59,36.98,36.98-16.59,36.98-36.98,36.98ZM157.3,307.13c-19.29,0-34.98,15.69-34.98,34.98s15.69,34.98,34.98,34.98,34.98-15.69,34.98-34.98-15.69-34.98-34.98-34.98Z"/>
            <path class="cls-8" d="M171.16,347.9c0,3.27-1.31,6.43-3.55,8.73-1.51,1.59-3.33,2.7-5.4,3.3v2.39c0,1.14-.43,2.22-1.19,3.01-.77.8-1.82,1.25-2.96,1.25-1.22,0-2.28-.46-3.07-1.25-.8-.8-1.28-1.88-1.28-3.01v-1.93h-3.95c-1.79,0-3.27-.57-4.3-1.51-1-.94-1.54-2.28-1.54-3.84,0-3.1,2.08-4.67,5.83-4.67h9.36c.37,0,.88-.14,1.25-.46.48-.37.71-.85.71-1.42,0-.83-.31-1.37-.94-1.68-.31-.14-.51-.2-.65-.23-.2-.03-.31-.06-.31-.06h-4.47c-3.1-.08-5.97-1.31-8.05-3.33-2.08-2.05-3.3-4.78-3.3-7.88s1.37-6.31,3.64-8.59c1.82-1.82,4.18-3.04,6.71-3.47v-1.59c0-1.17.43-2.16,1.28-3.01.83-.83,1.85-1.25,3.04-1.25,1.11,0,2.16.46,2.96,1.25.82.85,1.22,1.85,1.22,3.01v1.42h1.51c3.73,0,5.92,1.79,5.92,4.89,0,3.41-2.19,5.23-5.92,5.23h-8.73c-1,0-1.65.65-1.65,1.56s.51,1.71,1.34,1.71h4.29c3.33,0,6.4,1.17,8.65,3.21,2.28,2.05,3.55,4.92,3.55,8.19Z"/>
          </g>
          <path class="cls-8" d="M186.08,343.66c0,2-1.62,3.63-3.63,3.63s-3.63-1.62-3.63-3.63,1.62-3.63,3.63-3.63,3.63,1.62,3.63,3.63Z"/>
          <path class="cls-8" d="M135.14,343.66c0,2-1.62,3.63-3.63,3.63s-3.63-1.62-3.63-3.63,1.62-3.63,3.63-3.63,3.63,1.62,3.63,3.63Z"/>
        </g>
      </g>
      <g>
        <path class="cls-8" d="M123.65,283.25c-2.19,9.78-11.89,15.94-21.67,13.75-9.78-2.19-15.94-11.89-13.75-21.67,2.19-9.78,11.89-15.94,21.67-13.75,9.78,2.19,15.94,11.89,13.75,21.67Z"/>
        <g>
          <g>
            <circle class="cls-8" cx="104.44" cy="277.96" r="18.15" transform="translate(-184.73 210.52) rotate(-56.28)"/>
            <g>
              <circle class="cls-5" cx="104.44" cy="277.96" r="18.15" transform="translate(-184.73 210.52) rotate(-56.28)"/>
              <path class="cls-8" d="M104.44,297.11c-1.38,0-2.78-.15-4.18-.46-4.99-1.12-9.25-4.11-11.99-8.43-2.74-4.32-3.63-9.45-2.52-14.44,1.12-4.99,4.11-9.25,8.43-11.99,4.32-2.74,9.44-3.64,14.44-2.52,4.99,1.12,9.25,4.11,11.99,8.43,2.74,4.32,3.63,9.45,2.52,14.44h0c-1.99,8.9-9.92,14.97-18.68,14.97ZM104.41,260.8c-3.22,0-6.37.91-9.15,2.67-3.87,2.45-6.55,6.27-7.55,10.74-1,4.47-.2,9.06,2.25,12.93,2.45,3.87,6.27,6.55,10.74,7.55,9.22,2.06,18.41-3.76,20.48-12.99,1-4.47.2-9.06-2.25-12.93-2.45-3.87-6.27-6.55-10.74-7.55-1.26-.28-2.52-.42-3.78-.42ZM122.15,281.92h0,0Z"/>
            </g>
            <path class="cls-15" d="M104.46,292.95c-1.09,0-2.2-.12-3.29-.37h0c-8.07-1.81-13.16-9.84-11.36-17.91.87-3.9,3.22-7.23,6.6-9.38,3.38-2.15,7.39-2.85,11.3-1.98,8.07,1.81,13.16,9.84,11.36,17.9-.87,3.9-3.22,7.23-6.6,9.38-2.44,1.55-5.2,2.34-8.01,2.34ZM101.33,291.86c3.71.83,7.52.16,10.73-1.88,3.22-2.04,5.44-5.21,6.27-8.91,1.72-7.66-3.12-15.29-10.79-17.01-3.71-.83-7.52-.16-10.73,1.88-3.22,2.04-5.44,5.21-6.27,8.91-1.71,7.66,3.12,15.29,10.79,17.01h0Z"/>
            <path class="cls-15" d="M104.28,291.3c-.96,0-1.94-.11-2.92-.32-7.19-1.61-11.74-8.77-10.13-15.97.78-3.48,2.87-6.45,5.89-8.37,3.02-1.92,6.6-2.54,10.08-1.76,7.19,1.61,11.74,8.77,10.13,15.97-1.39,6.21-6.93,10.45-13.05,10.45ZM104.26,265.3c-2.37,0-4.69.67-6.74,1.97-2.85,1.81-4.82,4.61-5.56,7.9-1.52,6.79,2.77,13.55,9.56,15.07,3.29.74,6.66.14,9.51-1.66,2.85-1.81,4.83-4.61,5.56-7.9.74-3.28.14-6.66-1.66-9.51-1.81-2.85-4.61-4.83-7.9-5.56h0c-.92-.21-1.85-.31-2.77-.31Z"/>
            <path class="cls-8" d="M108.7,281.06c-.26,1.15-.97,2.16-1.94,2.8-.66.44-1.38.69-2.16.74l-.19.84c-.09.4-.33.75-.66.97-.33.22-.74.3-1.14.21-.43-.1-.77-.34-.98-.68-.22-.34-.3-.76-.21-1.16l.15-.68-1.39-.31c-.63-.14-1.11-.46-1.39-.87-.28-.41-.36-.92-.24-1.47.24-1.09,1.1-1.48,2.42-1.18l3.3.74c.13.03.32.02.48-.06.2-.09.32-.24.36-.45.07-.29,0-.5-.2-.67-.1-.07-.16-.11-.21-.13-.07-.03-.11-.04-.11-.04l-1.57-.35c-1.08-.27-2-.93-2.57-1.81-.57-.89-.79-1.94-.54-3.04.25-1.13.98-2.12,1.96-2.74.79-.5,1.71-.74,2.64-.69l.12-.56c.09-.41.32-.73.69-.96.35-.23.75-.3,1.17-.2.39.09.73.33.94.67.22.36.29.75.19,1.16l-.11.5.53.12c1.31.29,1.94,1.1,1.7,2.19-.27,1.2-1.19,1.67-2.5,1.38l-3.08-.69c-.35-.08-.63.1-.7.42-.07.33.05.64.34.71l1.51.34c1.17.26,2.16.92,2.79,1.81.64.9.86,2.01.61,3.17Z"/>
          </g>
          <path class="cls-8" d="M114.3,280.74c-.16.71-.86,1.15-1.56.99-.71-.16-1.15-.86-.99-1.56.16-.71.86-1.15,1.56-.99.71.16,1.15.86.99,1.56Z"/>
          <path class="cls-8" d="M96.34,276.72c-.16.71-.86,1.15-1.56.99-.71-.16-1.15-.86-.99-1.56.16-.71.86-1.15,1.56-.99.71.16,1.15.86.99,1.56Z"/>
        </g>
      </g>
      <circle class="cls-8" cx="74.75" cy="325.77" r="24.44" transform="translate(-187.53 118.6) rotate(-38.77)"/>
      <g>
        <circle class="cls-8" cx="72.13" cy="325.15" r="24.44" transform="translate(-254.62 389.66) rotate(-88.66)"/>
        <g>
          <circle class="cls-5" cx="72.13" cy="325.15" r="24.44" transform="translate(-254.62 389.66) rotate(-88.66)"/>
          <path class="cls-8" d="M72.14,351.1c-11.31,0-21.74-7.47-24.97-18.87-3.9-13.76,4.13-28.13,17.89-32.03,13.77-3.9,28.13,4.13,32.03,17.89,3.9,13.76-4.13,28.13-17.89,32.03-2.35.67-4.73.98-7.06.98ZM72.17,302.2c-2.1,0-4.21.29-6.28.88-12.17,3.45-19.27,16.15-15.82,28.32,3.45,12.17,16.15,19.27,28.32,15.82,5.9-1.67,10.79-5.54,13.78-10.88,2.99-5.35,3.71-11.54,2.04-17.44-1.67-5.9-5.54-10.79-10.88-13.78-3.47-1.94-7.29-2.92-11.15-2.92Z"/>
        </g>
        <path class="cls-15" d="M72.14,345.21c-8.75,0-16.81-5.77-19.31-14.59-3.01-10.64,3.19-21.75,13.83-24.77,5.15-1.46,10.56-.82,15.24,1.8,4.68,2.62,8.06,6.89,9.52,12.04,1.46,5.15.82,10.56-1.8,15.24-2.62,4.68-6.89,8.06-12.04,9.52-1.82.52-3.66.76-5.46.76ZM72.15,305.84c-1.76,0-3.53.24-5.27.74-10.24,2.9-16.22,13.6-13.32,23.84,2.9,10.25,13.6,16.21,23.84,13.32h0c4.95-1.4,9.07-4.66,11.59-9.17,2.52-4.51,3.13-9.72,1.73-14.67-1.4-4.96-4.66-9.07-9.17-11.59-2.92-1.63-6.15-2.47-9.4-2.47Z"/>
        <path class="cls-15" d="M71.9,343.1c-3.01,0-5.99-.77-8.7-2.28-4.17-2.33-7.19-6.14-8.49-10.73-1.3-4.59-.73-9.41,1.6-13.58,2.33-4.17,6.14-7.19,10.73-8.49h0c4.59-1.3,9.41-.73,13.58,1.6,4.17,2.33,7.19,6.14,8.49,10.73,1.3,4.59.73,9.41-1.6,13.58-2.33,4.17-6.14,7.19-10.73,8.49-1.61.46-3.25.68-4.88.68ZM71.93,308.08c-1.56,0-3.13.22-4.68.65h0c-4.39,1.25-8.04,4.13-10.28,8.13-2.23,4-2.78,8.62-1.53,13.01,1.25,4.39,4.13,8.04,8.13,10.28,4,2.23,8.62,2.78,13.01,1.53,4.39-1.25,8.04-4.13,10.28-8.13,2.23-4,2.78-8.62,1.53-13.01-1.25-4.39-4.13-8.05-8.13-10.28-2.59-1.45-5.45-2.19-8.34-2.19Z"/>
        <path class="cls-8" d="M79.17,326.08c.43,1.53.24,3.18-.51,4.56-.5.95-1.2,1.71-2.09,2.26l.32,1.12c.15.53.09,1.09-.16,1.57-.25.47-.69.83-1.22.98-.57.16-1.12.09-1.6-.18-.48-.27-.85-.71-1-1.24l-.26-.91-1.85.53c-.84.24-1.61.17-2.21-.14-.59-.31-1.02-.86-1.23-1.59-.41-1.45.35-2.46,2.11-2.96l4.38-1.24c.17-.05.39-.18.53-.38.18-.24.22-.49.14-.76-.11-.39-.33-.6-.66-.66-.17-.03-.27-.03-.34-.02-.1.01-.15.01-.15.01l-2.09.59c-1.46.37-2.97.18-4.21-.49-1.24-.68-2.18-1.8-2.59-3.25-.43-1.51-.2-3.14.57-4.5.61-1.09,1.56-1.98,2.68-2.52l-.21-.75c-.16-.54-.09-1.07.2-1.58.28-.5.7-.83,1.26-.99.52-.15,1.07-.07,1.55.19.5.29.82.7.97,1.25l.19.67.71-.2c1.75-.49,3.01.05,3.42,1.5.45,1.6-.33,2.74-2.08,3.24l-4.09,1.16c-.47.13-.69.53-.56.95.12.44.47.73.85.62l2.01-.57c1.56-.44,3.15-.3,4.47.36,1.34.66,2.32,1.83,2.75,3.36Z"/>
      </g>
      <path class="cls-8" d="M85.59,322.13c.27.94-.28,1.91-1.22,2.18s-1.91-.28-2.18-1.22.28-1.91,1.22-2.18,1.91.28,2.18,1.22Z"/>
      <path class="cls-8" d="M61.75,328.88c.27.94-.28,1.91-1.22,2.18-.94.27-1.91-.28-2.18-1.22-.27-.94.28-1.91,1.22-2.18.94-.27,1.91.28,2.18,1.22Z"/>
    </g>
    <g>
      <g>
        <path class="cls-8" d="M172.03,34.69h69.17c14.78,0,26.79,12,26.79,26.79v155.93c0,5.35-4.34,9.69-9.69,9.69h-104.2c-4.89,0-8.85-3.97-8.85-8.85V61.48c0-14.78,12-26.79,26.79-26.79Z" transform="translate(6.77 -10.12) rotate(2.85)"/>
        <g>
          <path class="cls-15" d="M246.75,229.55l-104.07-5.19c-4.88-.24-8.65-4.4-8.4-9.28l7.8-156.57c.74-14.78,13.31-26.16,28.09-25.42l69.08,3.44c14.78.74,26.16,13.31,25.42,28.09l-7.76,155.74c-.27,5.34-4.81,9.46-10.16,9.19Z"/>
          <path class="cls-8" d="M247.24,231.06c-.19,0-.37,0-.56-.01h0l-104.07-5.19c-5.7-.28-10.11-5.15-9.83-10.86l7.8-156.57c.38-7.55,3.67-14.49,9.27-19.56,5.6-5.07,12.86-7.65,20.39-7.28l69.08,3.44c15.58.78,27.62,14.08,26.84,29.66l-7.76,155.74c-.3,5.97-5.25,10.63-11.17,10.63ZM246.82,228.05c4.55.23,8.36-3.26,8.59-7.77l7.76-155.74c.69-13.93-10.07-25.82-24-26.52l-69.08-3.44c-6.75-.34-13.22,1.97-18.23,6.51-5.01,4.53-7.95,10.74-8.29,17.49l-7.8,156.57c-.2,4.05,2.93,7.51,6.98,7.71l104.07,5.19Z"/>
        </g>
        <g>
          <path class="cls-15" d="M238.01,36.5v-.03s-98.46-4.91-98.46-4.91c-11.33-.56-21,8.56-21.59,20.38l-.41,8.13,99.58,4.96.41-8.13c.57-11.43,9.63-20.34,20.47-20.41Z"/>
          <path class="cls-8" d="M217.13,66.54s-.05,0-.07,0l-99.58-4.96c-.83-.04-1.46-.75-1.42-1.57l.41-8.13c.3-6.11,2.87-11.74,7.23-15.85,4.38-4.13,10.03-6.25,15.93-5.95l98.47,4.91c.4.02.78.2,1.04.5.27.3.4.69.38,1.09-.05.79-.7,1.44-1.49,1.44-10.12.06-18.45,8.4-18.98,18.98l-.41,8.13c-.02.4-.2.77-.49,1.04-.28.25-.64.39-1.01.39ZM119.12,58.65l96.58,4.81.33-6.63c.42-8.5,5.25-15.73,12.11-19.35l-88.68-4.42c-5.08-.25-9.94,1.57-13.72,5.14-3.79,3.58-6.03,8.49-6.3,13.82l-.33,6.63Z"/>
        </g>
        <g class="cls-25">
          <path class="cls-8" d="M238.01,36.5v-.03s-98.46-4.91-98.46-4.91c-11.33-.56-21,8.56-21.59,20.38l-.41,8.13,99.58,4.96.41-8.13c.57-11.43,9.63-20.34,20.47-20.41Z"/>
        </g>
        <g>
          <line class="cls-15" x1="164.68" y1="76.96" x2="189.78" y2="78.21"/>
          <path class="cls-8" d="M189.78,79.71s-.05,0-.08,0l-25.1-1.25c-.83-.04-1.46-.75-1.42-1.57.04-.83.77-1.46,1.57-1.42l25.1,1.25c.83.04,1.46.75,1.42,1.57-.04.8-.7,1.43-1.5,1.43Z"/>
        </g>
        <g>
          <line class="cls-15" x1="221.59" y1="80.52" x2="246.69" y2="81.77"/>
          <path class="cls-8" d="M246.7,83.27s-.05,0-.08,0l-25.1-1.25c-.83-.04-1.46-.75-1.42-1.57.04-.83.77-1.47,1.57-1.42l25.1,1.25c.83.04,1.46.75,1.42,1.57-.04.8-.7,1.43-1.5,1.43Z"/>
        </g>
        <g>
          <line class="cls-15" x1="163.21" y1="106.55" x2="213.06" y2="108.73"/>
          <path class="cls-8" d="M213.06,110.23s-.04,0-.07,0l-49.85-2.18c-.83-.04-1.47-.74-1.43-1.56.04-.83.7-1.47,1.56-1.43l49.85,2.18c.83.04,1.47.74,1.43,1.56-.04.81-.7,1.43-1.5,1.43Z"/>
        </g>
        <g>
          <line class="cls-15" x1="161.81" y1="122.86" x2="182.6" y2="124.02"/>
          <path class="cls-8" d="M182.6,125.52s-.06,0-.08,0l-20.79-1.16c-.83-.05-1.46-.75-1.41-1.58.05-.83.76-1.45,1.58-1.41l20.79,1.16c.83.05,1.46.75,1.41,1.58-.04.8-.71,1.42-1.5,1.42Z"/>
        </g>
        <g>
          <line class="cls-15" x1="163.94" y1="91.77" x2="199.73" y2="93.55"/>
          <path class="cls-8" d="M199.74,95.05s-.05,0-.08,0l-35.79-1.78c-.83-.04-1.46-.75-1.42-1.57.04-.83.75-1.46,1.57-1.42l35.79,1.78c.83.04,1.46.75,1.42,1.57-.04.8-.7,1.43-1.5,1.43Z"/>
        </g>
        <g>
          <line class="cls-15" x1="208.41" y1="93.99" x2="213.06" y2="94.22"/>
          <path class="cls-8" d="M213.06,95.72s-.05,0-.08,0l-4.65-.23c-.83-.04-1.46-.75-1.42-1.57.04-.83.71-1.47,1.57-1.42l4.65.23c.83.04,1.46.75,1.42,1.57-.04.8-.7,1.43-1.5,1.43Z"/>
        </g>
        <path class="cls-6" d="M247.29,119.64c-.12,2.73-1.32,5.31-3.27,7.15-1.31,1.27-2.87,2.13-4.62,2.56l-.08,1.99c-.04.95-.43,1.83-1.1,2.47-.67.64-1.56.98-2.51.94-1.02-.04-1.88-.46-2.52-1.15-.64-.69-1-1.61-.96-2.56l.07-1.61-3.3-.14c-1.49-.06-2.71-.59-3.53-1.41-.8-.82-1.2-1.95-1.15-3.26.11-2.58,1.9-3.81,5.03-3.68l7.8.33c.31.01.74-.09,1.06-.33.42-.29.62-.69.64-1.16.03-.69-.21-1.15-.72-1.43-.26-.13-.42-.18-.54-.21-.16-.03-.26-.06-.26-.06l-3.72-.16c-2.58-.18-4.93-1.3-6.59-3.06-1.66-1.78-2.58-4.1-2.47-6.68.11-2.68,1.36-5.21,3.34-7.03,1.58-1.45,3.59-2.39,5.72-2.65l.06-1.33c.04-.97.43-1.79,1.17-2.47.72-.66,1.58-.98,2.58-.94.92.04,1.79.46,2.42,1.15.66.74.95,1.59.91,2.56l-.05,1.19,1.26.05c3.11.13,4.87,1.7,4.76,4.29-.12,2.84-2.01,4.28-5.12,4.15l-7.28-.31c-.83-.04-1.4.49-1.43,1.25-.03.78.37,1.44,1.05,1.47l3.58.15c2.77.12,5.29,1.2,7.09,2.99,1.82,1.79,2.79,4.23,2.67,6.95Z"/>
        <line class="cls-9" x1="119.45" y1="52.02" x2="140.77" y2="52.89"/>
      </g>
      <g>
        <g>
          <polyline class="cls-10" points="49.89 135.27 131.15 244.42 200.81 192.55 118.02 81.34 117.3 93.7 105.87 90.99 105.19 102.72 94.36 100.15 93.71 111.47 83.09 108.95 82.45 120.06 71.83 117.53 71.25 127.59 59.6 124.83 58.9 136.98 49.89 135.27"/>
          <path class="cls-8" d="M131.15,245.92c-.07,0-.14,0-.22-.02-.39-.06-.75-.27-.99-.59l-81.26-109.15c-.37-.5-.4-1.17-.07-1.69.33-.52.94-.79,1.55-.68l7.33,1.4.6-10.45c.03-.44.25-.85.6-1.12.35-.27.81-.36,1.24-.26l9.9,2.35.48-8.27c.03-.44.25-.85.6-1.12.35-.26.81-.36,1.24-.26l8.88,2.11.54-9.32c.03-.44.25-.85.6-1.12.35-.27.81-.36,1.24-.26l8.88,2.11.55-9.53c.03-.44.25-.85.6-1.12.35-.27.81-.36,1.24-.26l9.08,2.16.58-9.95c.03-.44.25-.85.6-1.12.35-.27.81-.36,1.24-.26l9.7,2.3.61-10.58c.04-.63.46-1.17,1.07-1.35.6-.18,1.26.03,1.63.54l82.79,111.21c.5.66.36,1.6-.31,2.1l-69.67,51.86c-.26.19-.57.3-.9.3ZM53.39,137.46l78.06,104.85,67.26-50.07-79.43-106.7-.48,8.25c-.03.44-.25.85-.6,1.12-.36.27-.81.36-1.24.26l-9.7-2.3-.58,9.95c-.03.44-.25.85-.6,1.12-.36.27-.81.36-1.24.26l-9.08-2.16-.55,9.53c-.03.44-.25.85-.6,1.12-.35.26-.81.36-1.24.26l-8.88-2.11-.54,9.32c-.03.44-.25.85-.6,1.12-.36.26-.81.36-1.24.26l-8.88-2.11-.48,8.27c-.03.44-.25.85-.6,1.12-.35.27-.81.36-1.24.26l-9.9-2.35-.6,10.37c-.02.43-.23.83-.57,1.1-.34.27-.78.37-1.2.29l-5.23-.99Z"/>
        </g>
        <g>
          <line class="cls-15" x1="74.75" y1="149.24" x2="96.17" y2="133.3"/>
          <path class="cls-15" d="M74.75,150.74c-.46,0-.91-.21-1.2-.6-.5-.66-.36-1.6.31-2.1l21.42-15.95c.66-.49,1.6-.36,2.1.31.5.66.36,1.6-.31,2.1l-21.42,15.95c-.27.2-.58.3-.89.3Z"/>
        </g>
        <g>
          <line class="cls-15" x1="81.09" y1="157.76" x2="120.47" y2="128.45"/>
          <path class="cls-8" d="M81.09,159.26c-.46,0-.91-.21-1.2-.6-.5-.66-.36-1.6.31-2.1l39.38-29.31c.66-.49,1.6-.36,2.1.31.5.66.36,1.6-.31,2.1l-39.38,29.31c-.27.2-.58.3-.89.3Z"/>
        </g>
        <g>
          <line class="cls-15" x1="124.73" y1="125.27" x2="130" y2="121.35"/>
          <path class="cls-15" d="M124.73,126.77c-.46,0-.91-.21-1.2-.6-.5-.66-.36-1.6.31-2.1l5.27-3.93c.66-.49,1.6-.36,2.1.31.5.66.36,1.6-.31,2.1l-5.27,3.93c-.27.2-.58.3-.89.3Z"/>
        </g>
        <g>
          <line class="cls-15" x1="90.22" y1="170.02" x2="104.69" y2="159.25"/>
          <path class="cls-8" d="M90.22,171.52c-.46,0-.91-.21-1.2-.6-.5-.66-.36-1.6.31-2.1l14.47-10.77c.66-.49,1.61-.36,2.1.31.5.66.36,1.6-.31,2.1l-14.47,10.77c-.27.2-.58.3-.89.3Z"/>
        </g>
        <g>
          <line class="cls-15" x1="110.93" y1="154.59" x2="139.13" y2="133.61"/>
          <path class="cls-8" d="M110.94,156.09c-.46,0-.91-.21-1.2-.6-.5-.66-.36-1.6.31-2.1l28.19-20.99c.66-.49,1.6-.36,2.1.31.5.66.36,1.6-.31,2.1l-28.19,20.99c-.27.2-.58.3-.89.3Z"/>
        </g>
        <g>
          <line class="cls-15" x1="103.62" y1="188.02" x2="135.37" y2="164.38"/>
          <path class="cls-15" d="M103.62,189.52c-.46,0-.91-.21-1.2-.6-.5-.66-.36-1.6.31-2.1l31.75-23.64c.66-.49,1.6-.36,2.1.31.5.66.36,1.6-.31,2.1l-31.75,23.64c-.27.2-.58.3-.89.3Z"/>
        </g>
        <g>
          <line class="cls-15" x1="150.71" y1="179.73" x2="165.35" y2="168.83"/>
          <path class="cls-8" d="M150.71,181.23c-.46,0-.91-.21-1.2-.6-.5-.66-.36-1.6.31-2.1l14.64-10.9c.66-.49,1.61-.36,2.1.31.5.66.36,1.6-.31,2.1l-14.64,10.9c-.27.2-.58.3-.89.3Z"/>
        </g>
      </g>
      <g>
        <g>
          <polyline class="cls-5" points="159.62 114.87 149.5 196.03 211.28 203.74 221.59 121.04 215.23 125.99 210.53 119.95 204.48 124.65 200.03 118.93 194.2 123.47 189.84 117.86 184.12 122.31 179.75 116.7 174.57 120.73 169.78 114.58 163.53 119.45 159.7 114.53"/>
          <path class="cls-8" d="M211.28,205.24c-.06,0-.12,0-.19-.01l-61.79-7.7c-.82-.1-1.41-.85-1.3-1.67l10.12-81.17c.01-.12.04-.23.08-.33.05-.38.24-.75.57-1.01.65-.51,1.59-.39,2.1.26l2.91,3.74,5.08-3.95c.31-.24.71-.35,1.11-.3.39.05.75.25,1,.57l3.87,4.97,4-3.11c.65-.51,1.59-.39,2.1.26l3.45,4.43,4.54-3.53c.65-.51,1.59-.39,2.1.26l3.45,4.43,4.64-3.61c.65-.51,1.59-.39,2.1.26l3.53,4.54,4.86-3.78c.65-.51,1.59-.39,2.1.26l3.78,4.86,5.18-4.03c.48-.37,1.13-.42,1.66-.12.53.3.82.89.75,1.49l-10.31,82.7c-.05.4-.25.75-.57,1-.26.21-.59.32-.92.32ZM151.17,194.73l58.81,7.33,9.68-77.62-3.51,2.73c-.65.51-1.6.39-2.1-.26l-3.78-4.86-4.86,3.78c-.65.51-1.6.39-2.1-.26l-3.53-4.54-4.64,3.61c-.31.24-.71.36-1.11.3-.39-.05-.75-.25-1-.57l-3.45-4.43-4.54,3.53c-.65.51-1.6.39-2.1-.26l-3.45-4.43-4,3.11c-.31.24-.71.36-1.11.3-.39-.05-.75-.25-1-.57l-3.87-4.97-5.08,3.95c-.65.51-1.6.39-2.1-.26l-1.64-2.11-9.53,76.47Z"/>
        </g>
        <path class="cls-15" d="M184.93,134.81s-.08,0-.12,0l-19-2.37c-.55-.07-.94-.57-.87-1.12.07-.55.57-.94,1.12-.87l19,2.37c.55.07.94.57.87,1.12-.06.51-.49.88-.99.88Z"/>
        <g>
          <line class="cls-15" x1="165.14" y1="137.77" x2="200.06" y2="142.13"/>
          <path class="cls-8" d="M200.06,143.13s-.08,0-.12,0l-34.92-4.35c-.55-.07-.94-.57-.87-1.12.07-.55.56-.94,1.12-.87l34.92,4.35c.55.07.94.57.87,1.12-.06.51-.49.88-.99.88Z"/>
        </g>
        <path class="cls-15" d="M208.52,144.18s-.08,0-.12,0l-4.68-.58c-.55-.07-.94-.57-.87-1.12.07-.55.56-.94,1.12-.87l4.68.58c.55.07.94.57.87,1.12-.06.51-.49.88-.99.88Z"/>
        <g>
          <line class="cls-15" x1="164" y1="146.89" x2="176.84" y2="148.49"/>
          <path class="cls-8" d="M176.84,149.49s-.08,0-.12,0l-12.83-1.6c-.55-.07-.94-.57-.87-1.12.07-.55.57-.94,1.12-.87l12.83,1.6c.55.07.94.57.87,1.12-.06.51-.49.88-.99.88Z"/>
        </g>
        <g>
          <line class="cls-15" x1="182.38" y1="149.18" x2="207.38" y2="152.29"/>
          <path class="cls-8" d="M207.38,153.29s-.08,0-.12,0l-25-3.12c-.55-.07-.94-.57-.87-1.12.07-.55.57-.94,1.12-.87l25,3.12c.55.07.94.57.87,1.12-.06.51-.49.88-.99.88Z"/>
        </g>
        <g>
          <line class="cls-15" x1="162.33" y1="160.27" x2="190.49" y2="163.78"/>
          <path class="cls-8" d="M190.49,164.78s-.08,0-.12,0l-28.16-3.51c-.55-.07-.94-.57-.87-1.12.07-.55.56-.94,1.12-.87l28.16,3.51c.55.07.94.57.87,1.12-.06.51-.49.88-.99.88Z"/>
        </g>
        <g>
          <line class="cls-15" x1="191.13" y1="176.87" x2="204.12" y2="178.49"/>
          <path class="cls-8" d="M204.12,179.99c-.06,0-.12,0-.19-.01l-12.99-1.62c-.82-.1-1.41-.85-1.3-1.67.1-.82.84-1.41,1.67-1.3l12.99,1.62c.82.1,1.41.85,1.3,1.67-.09.76-.74,1.31-1.49,1.31Z"/>
        </g>
      </g>
    </g>
    <g>
      <g>
        <path class="cls-2" d="M326.58,265l-161.33,38.95c-5.08,1.23-10.2-1.9-11.42-6.98l-25.67-106.34c-1.23-5.08,1.9-10.2,6.98-11.42l161.33-38.95c5.08-1.23,10.2,1.9,11.42,6.98l25.67,106.34c1.23,5.08-1.9,10.2-6.98,11.42Z"/>
        <path class="cls-8" d="M163,305.72c-1.99,0-3.95-.55-5.7-1.61-2.5-1.53-4.25-3.94-4.94-6.78l-25.67-106.34c-1.42-5.88,2.21-11.81,8.09-13.23l161.33-38.95c5.87-1.42,11.81,2.21,13.23,8.09l25.67,106.34c1.42,5.88-2.21,11.81-8.09,13.23h0l-161.33,38.95c-.86.21-1.73.31-2.59.31ZM298.68,141.5c-.62,0-1.24.07-1.87.22l-161.33,38.95c-4.27,1.03-6.9,5.34-5.87,9.61l25.67,106.34c.5,2.07,1.77,3.82,3.59,4.93,1.82,1.11,3.96,1.45,6.02.95l161.33-38.95h0c4.27-1.03,6.91-5.34,5.88-9.61l-25.67-106.34c-.88-3.64-4.15-6.1-7.74-6.1ZM326.58,265h0,0Z"/>
      </g>
      <path class="cls-7" d="M277.18,143.18l-47.41,11.56,11.02,45.2c1.43,5.86-3.58,12.12-11.2,13.98h0c-14.46,3.52-23.97,15.41-21.26,26.54h0c1.15,4.71-2.88,9.74-9,11.23h0c-17.07,4.16-28.32,18.2-25.11,31.35l4.34,17.8,144.83-35.31c7.16-1.75,11.55-8.97,9.8-16.13l-24.01-98.48c-1.97-8.1-10.14-13.07-18.24-11.09l-13.78,3.36Z"/>
      <g>
        <rect class="cls-8" x="166.09" y="240.25" width="24.6" height="6.76" rx="1.02" ry="1.02" transform="translate(-52.63 49.18) rotate(-13.7)"/>
        <rect class="cls-8" x="194.17" y="233.4" width="24.6" height="6.76" rx="1.02" ry="1.02" transform="translate(-50.21 55.64) rotate(-13.7)"/>
        <rect class="cls-8" x="221.65" y="226.7" width="24.6" height="6.76" rx="1.02" ry="1.02" transform="translate(-47.84 61.96) rotate(-13.7)"/>
        <rect class="cls-8" x="249.13" y="220" width="24.6" height="6.76" rx="1.02" ry="1.02" transform="translate(-45.47 68.28) rotate(-13.7)"/>
        <rect class="cls-15" x="169.58" y="258.4" width="20.61" height="4.37" rx="1.02" ry="1.02" transform="translate(-56.6 50.02) rotate(-13.7)"/>
        <rect class="cls-15" x="273.98" y="157.27" width="20.61" height="4.37" rx="1.02" ry="1.02" transform="translate(-22.16 48.38) rotate(-9.36)"/>
        <rect class="cls-15" x="151.18" y="180.93" width="77.31" height="5.88" rx="1.37" ry="1.37" transform="translate(-38.15 50.2) rotate(-13.7)"/>
        <rect class="cls-15" x="195.14" y="252.06" width="20.61" height="4.37" rx="1.02" ry="1.02" transform="translate(-54.37 55.9) rotate(-13.7)"/>
        <rect class="cls-15" x="220.07" y="246.18" width="20.61" height="4.37" rx="1.02" ry="1.02" transform="translate(-52.27 61.63) rotate(-13.7)"/>
        <rect class="cls-5" x="172.16" y="271.59" width="20.61" height="4.37" rx="1.02" ry="1.02" transform="translate(-59.65 51.01) rotate(-13.7)"/>
      </g>
      <g>
        <g>
          <path class="cls-5" d="M191.85,224.48l-26.38,6.37c-1.46.35-2.93-.55-3.28-2l-1.92-7.94-1.76-7.29c-.35-1.46.55-2.93,2-3.28l26.38-6.37c1.46-.35,2.93.55,3.28,2l3.68,15.23c.35,1.46-.55,2.93-2,3.28Z"/>
          <g>
            <line class="cls-5" x1="158.63" y1="221.43" x2="191.89" y2="213.05"/>
            <path class="cls-2" d="M158.63,222.93c-.67,0-1.28-.45-1.45-1.13-.2-.8.28-1.62,1.09-1.82l33.25-8.38c.8-.2,1.62.28,1.82,1.09.2.8-.28,1.62-1.09,1.82l-33.25,8.38c-.12.03-.25.05-.37.05Z"/>
          </g>
        </g>
        <g>
          <path class="cls-5" d="M180.9,216.64c.27,2.79-1.77,5.26-4.56,5.53-2.79.27-5.26-1.77-5.53-4.56-.27-2.79,1.77-5.26,4.56-5.53s5.26,1.77,5.53,4.56Z"/>
          <path class="cls-2" d="M175.85,223.69c-3.34,0-6.2-2.55-6.53-5.94-.17-1.75.35-3.45,1.47-4.81,1.12-1.35,2.69-2.19,4.44-2.36,3.6-.35,6.82,2.3,7.17,5.91.35,3.6-2.3,6.82-5.91,7.17-.21.02-.42.03-.63.03ZM175.86,213.56c-.12,0-.23,0-.35.02-.95.09-1.8.55-2.41,1.28-.61.74-.89,1.66-.8,2.61.19,1.96,1.93,3.4,3.89,3.21.95-.09,1.8-.55,2.41-1.28.61-.74.89-1.66.8-2.61-.09-.95-.55-1.8-1.28-2.41-.64-.53-1.44-.81-2.26-.81Z"/>
        </g>
      </g>
      <g>
        <path class="cls-15" d="M292.82,247.61c-.78-2.76-.3-5.57,1.1-7.83-2.12-1.07-4.63-1.38-7.09-.68-5.22,1.48-8.25,6.92-6.77,12.14,1.48,5.22,6.92,8.25,12.14,6.77,2.46-.7,4.43-2.28,5.67-4.3-2.38-1.19-4.27-3.33-5.05-6.09Z"/>
        <path class="cls-5" d="M302.94,234.56c-2.46.7-4.43,2.28-5.67,4.3-1.39,2.26-1.88,5.08-1.1,7.83.78,2.76,2.67,4.9,5.05,6.09,2.12,1.07,4.63,1.38,7.09.68,5.22-1.48,8.25-6.92,6.77-12.14-1.48-5.22-6.92-8.25-12.14-6.77Z"/>
      </g>
    </g>
    <g>
      <g>
        <g>
          <path class="cls-8" d="M309.62,60.8c.12-.24.3-.45.55-.6l16.29-9.63c.67-.4,1.54-.17,1.94.5.4.68.17,1.54-.5,1.94l-16.29,9.63c-.67.4-1.54.17-1.94-.5-.25-.43-.25-.93-.05-1.34Z"/>
          <path class="cls-8" d="M298.54,58.19c-.02-.19,0-.39.06-.58l7.84-25.17c.23-.75,1.03-1.16,1.77-.93.75.23,1.16,1.03.93,1.77l-7.84,25.17c-.23.75-1.03,1.16-1.77.93-.55-.17-.92-.65-.99-1.19Z"/>
          <path class="cls-8" d="M271.38,34.6c-.31-.68-.04-1.49.62-1.85.69-.37,1.55-.1,1.91.59l13.41,25.38c.35.72.1,1.55-.59,1.91-.69.37-1.55.1-1.91-.59l-13.41-25.38s-.02-.05-.03-.07Z"/>
        </g>
        <g>
          <path class="cls-8" d="M231.26,369.72c-.12.2-.3.36-.53.46l-14.88,6.84c-.62.28-1.34.01-1.63-.6-.28-.62,0-1.34.6-1.63l14.88-6.84c.62-.28,1.34-.01,1.63.6.18.39.14.82-.08,1.16Z"/>
          <path class="cls-8" d="M240.56,372.96c0,.17-.03.33-.1.5l-9,20.96c-.27.62-.99.91-1.61.64-.62-.27-.91-.99-.64-1.61l9-20.96c.27-.62.99-.91,1.61-.64.46.2.74.64.74,1.11Z"/>
          <path class="cls-8" d="M261.83,395.69c.21.61-.09,1.29-.7,1.53-.63.25-1.34-.05-1.6-.68l-9.28-23.04c-.24-.65.05-1.34.68-1.6.63-.25,1.34.05,1.6.68l9.28,23.04s.02.04.02.06Z"/>
        </g>
      </g>
      <g>
        <g>
          <path class="cls-5" d="M75.59,223.55l-.68-17.21,29.64,27.56-27.39,29.8-.68-17.21s-25.58-5.14-41.73,24.62c0,0-5.19-22.02,13.51-38.86,0,0,8.43-8.53,27.33-8.7h0Z"/>
          <path class="cls-8" d="M34.76,272.6c-.07,0-.13,0-.2-.01-.62-.08-1.12-.54-1.26-1.14-.05-.23-5.17-23.09,13.96-40.31.29-.3,8.56-8.45,26.77-9.05l-.62-15.69c-.02-.61.32-1.17.87-1.42.55-.25,1.2-.15,1.65.26l29.64,27.56c.6.56.64,1.51.08,2.11l-27.39,29.8c-.41.45-1.05.6-1.62.39-.57-.21-.96-.74-.98-1.35l-.63-15.97c-5.08-.58-25.3-1.14-38.96,24.03-.26.49-.77.78-1.32.78ZM76.56,209.91l.53,13.58c.02.41-.13.8-.41,1.09-.28.29-.67.46-1.07.46-18.07.16-26.19,8.17-26.27,8.25-13.04,11.74-14.05,26.21-13.63,33.23,16.55-26.09,40.83-21.57,41.08-21.52.68.14,1.18.72,1.2,1.41l.53,13.58,23.92-26.02-25.89-24.07Z"/>
        </g>
        <g>
          <path class="cls-5" d="M378.67,282.5l-.48,17.22-27.73-29.48,29.32-27.9-.48,17.22s25.18,6.84,43.29-21.77c0,0,3.7,22.32-16.08,37.87,0,0-8.98,7.94-27.85,6.85h0Z"/>
          <path class="cls-8" d="M378.19,301.22c-.41,0-.8-.17-1.09-.47l-27.73-29.48c-.57-.6-.54-1.55.06-2.11l29.32-27.9c.44-.42,1.09-.53,1.64-.28.55.25.91.8.89,1.41l-.44,15.97c5.02.92,25.16,2.83,40.49-21.37.33-.52.95-.79,1.57-.67.61.12,1.08.61,1.18,1.22.04.23,3.61,23.38-16.63,39.29-.31.28-9.1,7.86-27.32,7.24l-.44,15.69c-.02.61-.4,1.14-.97,1.36-.17.07-.35.1-.53.1ZM352.57,270.3l24.22,25.75.38-13.58c.01-.41.19-.79.48-1.06.3-.27.7-.42,1.1-.39,17.94,1.03,26.68-6.4,26.77-6.48,13.83-10.87,15.79-25.23,15.83-32.25-18.26,24.93-42.19,18.8-42.44,18.73-.67-.18-1.13-.8-1.11-1.49l.38-13.58-25.61,24.36Z"/>
        </g>
      </g>
    </g>
  </g>
</svg>