<svg xmlns="http://www.w3.org/2000/svg" version="1.1" xmlns:xlink="http://www.w3.org/1999/xlink" width="512" height="512" x="0" y="0" viewBox="0 0 105 105" style="enable-background:new 0 0 512 512" xml:space="preserve" class=""><g><path fill="#ffffff" d="m86.334 12.928 3.024 70.375c.223 5.182-3.804 9.57-8.995 9.792l-55.19 2.372c-5.191.223-9.579-3.803-9.802-8.985l-3.024-70.374c-.222-5.182 3.804-9.57 8.995-9.793l55.19-2.371c5.191-.224 9.58 3.802 9.802 8.984z" opacity="1" data-original="#ffffff"></path><path fill="#dddddd" d="m89.342 82.93.016.373c.223 5.182-3.804 9.57-8.995 9.792l-55.19 2.372c-5.191.223-9.579-3.803-9.802-8.985l-3.024-70.374c-.222-5.182 3.804-9.57 8.995-9.793l11.942-.513c-10.149 9.117-16.243 22.097-15.636 36.24 1.125 26.16 24.75 46.386 52.76 45.182 6.75-.29 13.142-1.802 18.934-4.293z" opacity="1" data-original="#dddddd"></path><path fill="#0f0f0f" d="M8.695 26.737a.75.75 0 0 1-.75-.717l-.096-2.248a.75.75 0 0 1 1.499-.064l.097 2.247a.75.75 0 0 1-.75.782zM9.739 51.03a.75.75 0 0 1-.75-.717l-.864-20.11a.75.75 0 0 1 .718-.782.74.74 0 0 1 .781.717l.865 20.11a.75.75 0 0 1-.718.782H9.74zM24.758 96.226c-2.548 0-4.967-.94-6.856-2.672a10.078 10.078 0 0 1-3.28-7.04L11.598 16.14a10.076 10.076 0 0 1 2.664-7.295 10.093 10.093 0 0 1 7.048-3.28l55.19-2.37c2.718-.115 5.304.828 7.303 2.661s3.164 4.333 3.28 7.04l3.024 70.375c.116 2.707-.83 5.297-2.664 7.295s-4.337 3.162-7.047 3.279l-55.191 2.371c-.15.007-.298.01-.447.01zM76.946 4.685c-.127 0-.254.003-.381.008l-55.19 2.371a8.605 8.605 0 0 0-6.009 2.795 8.584 8.584 0 0 0-2.27 6.216l3.025 70.375c.099 2.306 1.091 4.437 2.795 5.999s3.904 2.372 6.224 2.268l55.191-2.371a8.605 8.605 0 0 0 6.008-2.795 8.583 8.583 0 0 0 2.27-6.216l-3.025-70.374a8.587 8.587 0 0 0-2.795-6 8.597 8.597 0 0 0-5.843-2.276z" opacity="1" data-original="#0f0f0f" class=""></path><path fill="#0f0f0f" d="M21.6 80.308a.76.76 0 0 1-.756-.76c0-.442.4-.797.836-.744l34.47-1.678a.75.75 0 1 1 .073 1.498l-34.587 1.683h-.035zM21.214 71.22a.766.766 0 0 1-.756-.683.75.75 0 0 1 .836-.82l6.525-.281a.75.75 0 0 1 .064 1.499l-6.638.285h-.031z" opacity="1" data-original="#0f0f0f" class=""></path><path fill="#0f0f0f" d="M26.763 70.982a.75.75 0 0 1-.036-1.5L59.135 67.9a.75.75 0 1 1 .073 1.498l-32.407 1.583h-.038zM42.949 61.183a.767.767 0 0 1-.76-.76c0-.444.406-.795.84-.744l10.613-.457a.74.74 0 0 1 .782.717.75.75 0 0 1-.717.782l-10.727.461h-.031zM42.557 52.096a.766.766 0 0 1-.755-.684.75.75 0 0 1 .836-.82l5.914-.255a.75.75 0 0 1 .064 1.499l-6.027.26h-.032zM53.283 51.635a.75.75 0 0 1-.031-1.5l28.108-1.208a.74.74 0 0 1 .781.718.75.75 0 0 1-.717.781l-28.108 1.208h-.033zM42.167 43.009a.767.767 0 0 1-.756-.684.75.75 0 0 1 .836-.82L69.83 40.32a.75.75 0 0 1 .064 1.499L42.2 43.008h-.032zM73.732 41.652a.75.75 0 0 1-.032-1.5l7.269-.311a.75.75 0 1 1 .064 1.498l-7.269.313h-.032z" opacity="1" data-original="#0f0f0f" class=""></path><path fill="#ff84a0" d="M26.909 33.81a4.485 4.485 0 0 1-4.673-4.279l-.507-11.793a4.485 4.485 0 0 1 4.289-4.665l46.435-1.995a4.485 4.485 0 0 1 4.673 4.28l.507 11.793a4.485 4.485 0 0 1-4.289 4.664z" opacity="1" data-original="#ff84a0"></path><path fill="#f76189" d="m77.308 19.606.324 7.54a4.483 4.483 0 0 1-4.284 4.669l-46.443 1.996a4.483 4.483 0 0 1-4.668-4.284l-.506-11.785a4.483 4.483 0 0 1 4.283-4.668l.075-.004c-.42.837-.616 1.701-.578 2.584.276 6.407 12.99 11.071 28.396 10.41 9.955-.429 18.6-2.977 23.4-6.458z" opacity="1" data-original="#f76189"></path><path fill="#0f0f0f" d="M26.711 34.565a5.2 5.2 0 0 1-3.532-1.376 5.186 5.186 0 0 1-1.692-3.625L20.98 17.77c-.124-2.879 2.122-5.322 5.006-5.446L72.42 10.33a5.193 5.193 0 0 1 3.761 1.371 5.186 5.186 0 0 1 1.693 3.625l.507 11.794c.124 2.879-2.122 5.321-5.006 5.445L26.941 34.56a5.162 5.162 0 0 1-.23.005zM72.65 11.824c-.055 0-.11.001-.164.003L26.05 13.823a3.734 3.734 0 0 0-3.571 3.882l.507 11.794c.042.992.47 1.91 1.206 2.583a3.726 3.726 0 0 0 2.685.98l46.435-1.996a3.734 3.734 0 0 0 3.571-3.883l-.507-11.794a3.696 3.696 0 0 0-1.206-2.583 3.713 3.713 0 0 0-2.52-.982zM26.534 52.77a4.304 4.304 0 0 1-2.938-1.15 4.309 4.309 0 0 1-1.392-3.015 4.344 4.344 0 0 1 4.161-4.507l4.001-.159c1.152-.05 2.263.36 3.115 1.147s1.345 1.856 1.392 3.014a.75.75 0 0 1-1.5.06 2.82 2.82 0 0 0-.91-1.972 2.812 2.812 0 0 0-2.037-.75l-4 .16a2.82 2.82 0 0 0-1.972.91 2.82 2.82 0 0 0-.75 2.037c.03.758.352 1.458.91 1.972s1.275.782 2.038.75l4-.16a.757.757 0 0 1 .779.72.75.75 0 0 1-.72.78l-4 .16-.177.003z" opacity="1" data-original="#0f0f0f" class=""></path><path fill="#0f0f0f" d="M26.823 59.94a4.344 4.344 0 0 1-4.333-4.166.75.75 0 0 1 1.499-.06 2.831 2.831 0 0 0 2.948 2.723l4-.16a2.818 2.818 0 0 0 1.972-.91 2.837 2.837 0 0 0-2.198-4.76l-4 .16a.75.75 0 0 1-.06-1.499l4-.16a4.348 4.348 0 0 1 4.507 4.162 4.309 4.309 0 0 1-1.147 3.115 4.31 4.31 0 0 1-3.014 1.391l-4 .16a4.151 4.151 0 0 1-.174.003zM28.395 45.518a.75.75 0 0 1-.75-.72l-.075-1.915a.75.75 0 1 1 1.499-.06l.076 1.915a.75.75 0 0 1-.72.78h-.03z" opacity="1" data-original="#0f0f0f" class=""></path><path fill="#0f0f0f" d="M29.043 61.771a.75.75 0 0 1-.75-.72l-.075-1.915a.75.75 0 1 1 1.499-.06l.076 1.915a.75.75 0 0 1-.72.78h-.03z" opacity="1" data-original="#0f0f0f" class=""></path><path d="m43.368 16.282.066 1.53-4.328.186.486 11.313-1.766.076-.486-11.313-4.328.186-.066-1.53zM47.373 16.11l1.967-.085L54.55 28.67l-1.906.082-1.467-3.791-5.08.218-1.225 3.907-1.784.076zm3.184 7.457-2.194-5.59-1.828 5.763zM57.236 28.553l-2.099.09 4.316-6.78-4.579-6.075 2.177-.094 3.49 4.773 3.041-5.054 2.072-.089-4.041 6.446 4.803 6.389-2.16.093-3.69-5.132z" fill="#000000" opacity="1" data-original="#000000"></path><path fill="#aff2b6" d="M101.44 10.717a7.02 7.02 0 0 0-5.686 5.193.144.144 0 0 1-.284-.013 6.919 6.919 0 0 0-1.747-3.622 6.921 6.921 0 0 0-3.439-2.072.144.144 0 0 1 .013-.284 6.97 6.97 0 0 0 3.622-1.746 6.959 6.959 0 0 0 2.065-3.447.144.144 0 0 1 .284.014c.215 1.38.836 2.63 1.74 3.621s2.091 1.731 3.446 2.072c.16.041.151.258-.013.284z" opacity="1" data-original="#aff2b6" class=""></path><path fill="#7fd685" d="M101.444 10.714a7.017 7.017 0 0 0-5.692 5.199.146.146 0 0 1-.285-.013 6.877 6.877 0 0 0-1.61-3.479 4.67 4.67 0 0 0 4.022-4.224c.034.057.087.115.13.163a6.94 6.94 0 0 0 3.448 2.069c.155.044.145.264-.013.285z" opacity="1" data-original="#7fd685" class=""></path><path fill="#0f0f0f" d="M95.614 16.775h-.041a.891.891 0 0 1-.844-.76 6.162 6.162 0 0 0-1.558-3.233 6.157 6.157 0 0 0-3.07-1.851.891.891 0 0 1-.681-.91.89.89 0 0 1 .758-.843 6.204 6.204 0 0 0 3.236-1.56 6.192 6.192 0 0 0 1.843-3.074.923.923 0 0 1 .91-.682c.427.02.773.332.842.759a6.199 6.199 0 0 0 1.553 3.235 6.204 6.204 0 0 0 3.075 1.85.892.892 0 0 1 .682.909.891.891 0 0 1-.76.843h-.001a6.246 6.246 0 0 0-5.077 4.637.891.891 0 0 1-.867.68zm-3.405-6.626c.77.414 1.47.96 2.07 1.622a7.662 7.662 0 0 1 1.422 2.212 7.746 7.746 0 0 1 3.829-3.496 7.791 7.791 0 0 1-2.076-1.62 7.738 7.738 0 0 1-1.416-2.21 7.738 7.738 0 0 1-1.613 2.07 7.783 7.783 0 0 1-2.216 1.422zm9.232.568h.01zm-.12-.74z" opacity="1" data-original="#0f0f0f" class=""></path><path fill="#c3c9fb" d="M100.69 62.392v33.54a4.728 4.728 0 0 1-4.729 4.728H68.676a4.73 4.73 0 0 1-4.74-4.728v-33.54a4.73 4.73 0 0 1 4.74-4.728h27.285a4.728 4.728 0 0 1 4.729 4.728z" opacity="1" data-original="#c3c9fb"></path><path fill="#8693e2" d="M100.69 62.392v33.54a4.728 4.728 0 0 1-4.729 4.728H68.676a4.73 4.73 0 0 1-4.74-4.728v-3.6c3.16 3.504 7.384 5.642 12.015 5.642 9.876 0 17.872-9.704 17.872-21.676 0-7.93-3.504-14.862-8.748-18.634h10.886a4.728 4.728 0 0 1 4.729 4.728z" opacity="1" data-original="#8693e2"></path><path fill="#ffffff" d="M85.516 80.113v3.515c0 .773-.634 1.407-1.408 1.407h-3.59a1.412 1.412 0 0 1-1.407-1.407v-3.515c0-.774.634-1.407 1.408-1.407h3.589c.774 0 1.408.633 1.408 1.407zM85.516 90.591v3.514c0 .774-.634 1.397-1.408 1.397h-3.59a1.403 1.403 0 0 1-1.407-1.397v-3.514c0-.774.634-1.408 1.408-1.408h3.589c.774 0 1.408.634 1.408 1.408z" opacity="1" data-original="#ffffff"></path><path fill="#ffd9b0" d="M68.934 72.548v-8.329c0-.774.634-1.397 1.408-1.397h23.943c.774 0 1.408.623 1.408 1.397v8.34c0 .773-.634 1.407-1.408 1.407H70.352a1.424 1.424 0 0 1-1.418-1.418z" opacity="1" data-original="#ffd9b0"></path><path fill="#edb57e" d="M95.693 67.916v4.642c0 .774-.634 1.408-1.408 1.408H70.352a1.424 1.424 0 0 1-1.418-1.418V68.13c3.192 1.16 7.888 1.891 13.11 1.891 5.535 0 10.457-.816 13.649-2.106z" opacity="1" data-original="#edb57e"></path><path fill="#ffffff" d="M75.156 80.113v3.515c0 .773-.634 1.407-1.408 1.407h-3.6a1.403 1.403 0 0 1-1.397-1.407v-3.515c0-.774.623-1.407 1.397-1.407h3.6c.774 0 1.408.633 1.408 1.407z" opacity="1" data-original="#ffffff"></path><path fill="#dddddd" d="M75.156 80.113v.666h-2.859c-.773 0-1.397.635-1.397 1.408v2.848h-.752a1.403 1.403 0 0 1-1.397-1.407v-3.515c0-.774.623-1.407 1.397-1.407h3.6c.774 0 1.408.633 1.408 1.407z" opacity="1" data-original="#dddddd"></path><path fill="#ffffff" d="M75.156 90.591v3.514c0 .774-.634 1.397-1.408 1.397h-3.6a1.394 1.394 0 0 1-1.397-1.397v-3.514c0-.774.623-1.408 1.397-1.408h3.6c.774 0 1.408.634 1.408 1.408z" opacity="1" data-original="#ffffff"></path><path fill="#ff84a0" d="M95.875 80.113v13.992c0 .774-.623 1.397-1.397 1.397h-3.6a1.394 1.394 0 0 1-1.397-1.397V80.113c0-.774.624-1.407 1.397-1.407h3.6c.774 0 1.397.633 1.397 1.407z" opacity="1" data-original="#ff84a0"></path><path fill="#f76189" d="M95.875 80.113v.677h-2.804c-.774 0-1.397.624-1.397 1.408v13.304h-.796a1.394 1.394 0 0 1-1.397-1.397V80.113c0-.774.624-1.407 1.397-1.407h3.6c.774 0 1.397.633 1.397 1.407z" opacity="1" data-original="#f76189"></path><path fill="#0f0f0f" d="M95.961 101.41H68.676c-3.027 0-5.49-2.457-5.49-5.478v-33.54c0-3.02 2.463-5.478 5.49-5.478h27.285a5.485 5.485 0 0 1 5.479 5.478v33.54a5.485 5.485 0 0 1-5.479 5.479zM68.676 58.415c-2.2 0-3.99 1.784-3.99 3.978v33.54a3.988 3.988 0 0 0 3.99 3.979h27.285a3.983 3.983 0 0 0 3.979-3.979v-33.54a3.983 3.983 0 0 0-3.979-3.978H68.676z" opacity="1" data-original="#0f0f0f" class=""></path><path fill="#dddddd" d="M85.516 80.113v.666h-2.859c-.774 0-1.397.635-1.397 1.408v2.848h-.752a1.403 1.403 0 0 1-1.397-1.407v-3.515c0-.774.623-1.407 1.397-1.407h3.6c.774 0 1.408.633 1.408 1.407zM85.516 90.586v.666h-2.859c-.774 0-1.397.634-1.397 1.408v2.848h-.752A1.403 1.403 0 0 1 79.11 94.1v-3.514c0-.774.623-1.408 1.397-1.408h3.6c.774 0 1.408.634 1.408 1.408z" opacity="1" data-original="#dddddd"></path><path fill="#0f0f0f" d="M84.108 85.785h-3.59a2.16 2.16 0 0 1-2.157-2.158v-3.514a2.16 2.16 0 0 1 2.158-2.157h3.589a2.16 2.16 0 0 1 2.158 2.157v3.514a2.16 2.16 0 0 1-2.158 2.158zm-3.59-6.33a.658.658 0 0 0-.657.658v3.514c0 .357.301.658.658.658h3.589a.667.667 0 0 0 .658-.658v-3.514a.667.667 0 0 0-.658-.657zM84.108 96.252h-3.59a2.155 2.155 0 0 1-2.157-2.147v-3.514a2.16 2.16 0 0 1 2.158-2.157h3.589a2.16 2.16 0 0 1 2.158 2.157v3.514a2.155 2.155 0 0 1-2.158 2.147zm-3.59-6.318a.658.658 0 0 0-.657.657v3.514c0 .357.295.647.658.647h3.589c.362 0 .658-.29.658-.647v-3.514a.667.667 0 0 0-.658-.657zM94.285 74.716H70.352a2.17 2.17 0 0 1-2.168-2.168v-8.329c0-1.184.968-2.147 2.158-2.147h23.943c1.19 0 2.158.963 2.158 2.147v8.34a2.16 2.16 0 0 1-2.158 2.157zM70.342 63.572a.653.653 0 0 0-.658.647v8.329c0 .362.306.668.668.668h23.933a.659.659 0 0 0 .658-.658V64.22a.653.653 0 0 0-.658-.647zM73.748 85.785h-3.6a2.155 2.155 0 0 1-2.147-2.158v-3.514c0-1.19.963-2.157 2.147-2.157h3.6a2.16 2.16 0 0 1 2.158 2.157v3.514a2.16 2.16 0 0 1-2.158 2.158zm-3.6-6.33a.653.653 0 0 0-.647.658v3.514c0 .363.29.658.647.658h3.6a.667.667 0 0 0 .658-.658v-3.514a.658.658 0 0 0-.658-.657z" opacity="1" data-original="#0f0f0f" class=""></path><path fill="#dddddd" d="M75.156 90.586v.666h-2.859c-.773 0-1.397.634-1.397 1.408v2.848h-.752a1.403 1.403 0 0 1-1.397-1.408v-3.514c0-.774.623-1.408 1.397-1.408h3.6c.774 0 1.408.634 1.408 1.408z" opacity="1" data-original="#dddddd"></path><path fill="#0f0f0f" d="M73.748 96.252h-3.6a2.15 2.15 0 0 1-2.147-2.147v-3.514c0-1.19.963-2.157 2.147-2.157h3.6a2.16 2.16 0 0 1 2.158 2.157v3.514a2.155 2.155 0 0 1-2.158 2.147zm-3.6-6.318a.653.653 0 0 0-.647.657v3.514c0 .357.29.647.647.647h3.6c.363 0 .658-.29.658-.647v-3.514a.658.658 0 0 0-.658-.657zM94.478 96.252h-3.6a2.15 2.15 0 0 1-2.147-2.147V80.113c0-1.19.963-2.157 2.147-2.157h3.6c1.184 0 2.147.967 2.147 2.157v13.992a2.15 2.15 0 0 1-2.147 2.147zm-3.6-16.796a.653.653 0 0 0-.647.657v13.992c0 .357.29.647.647.647h3.6c.357 0 .647-.29.647-.647V80.113a.653.653 0 0 0-.647-.657h-3.6z" opacity="1" data-original="#0f0f0f" class=""></path><path fill="#ffd9b0" d="M42.967 94.151v5.538c0 .76-.615 1.376-1.375 1.376H12.72c-.76 0-1.375-.616-1.375-1.376v-5.538c0-.76.616-1.375 1.375-1.375h28.872c.76 0 1.375.616 1.375 1.375z" opacity="1" data-original="#ffd9b0"></path><path fill="#edb57e" d="M42.968 97.571v2.117c0 .762-.616 1.377-1.377 1.377h-28.87a1.375 1.375 0 0 1-1.376-1.377V94.15c0-.756.615-1.376 1.377-1.376h4.896c-2.722.531-4.333 1.199-4.333 1.919 0 1.746 9.413 3.16 21.026 3.16 3.087 0 6.018-.1 8.657-.282z" opacity="1" data-original="#edb57e"></path><path fill="#ffd9b0" d="M36.941 85.862V91.4c0 .76-.616 1.376-1.375 1.376H6.694c-.76 0-1.376-.616-1.376-1.376v-5.538c0-.76.616-1.376 1.376-1.376h28.872c.76 0 1.375.616 1.375 1.376z" opacity="1" data-original="#ffd9b0"></path><path fill="#edb57e" d="M36.941 89.283V91.4c0 .762-.615 1.377-1.377 1.377H6.695A1.375 1.375 0 0 1 5.318 91.4v-5.538c0-.756.616-1.377 1.377-1.377h4.897c-2.722.532-4.334 1.2-4.334 1.92 0 1.746 9.413 3.16 21.027 3.16 3.087 0 6.017-.1 8.656-.282z" opacity="1" data-original="#edb57e"></path><path fill="#0f0f0f" d="M41.592 101.815H12.72a2.128 2.128 0 0 1-2.126-2.126v-5.538c0-1.172.954-2.125 2.126-2.125h28.872c1.172 0 2.126.953 2.126 2.125v5.538a2.128 2.128 0 0 1-2.126 2.126zm-28.872-8.29a.627.627 0 0 0-.626.626v5.538c0 .345.281.626.626.626h28.872c.345 0 .626-.28.626-.626v-5.538a.626.626 0 0 0-.626-.625z" opacity="1" data-original="#0f0f0f" class=""></path><path fill="#0f0f0f" d="M17.06 101.815a.75.75 0 0 1-.75-.75v-8.29a.75.75 0 0 1 1.5 0v8.29a.75.75 0 0 1-.75.75zM23.791 101.815a.75.75 0 0 1-.75-.75v-8.29a.75.75 0 0 1 1.5 0v8.29a.75.75 0 0 1-.75.75zM30.521 101.815a.75.75 0 0 1-.75-.75v-8.29a.75.75 0 0 1 1.5 0v8.29a.75.75 0 0 1-.75.75zM37.251 101.815a.75.75 0 0 1-.75-.75v-8.29a.75.75 0 0 1 1.5 0v8.29a.75.75 0 0 1-.75.75z" opacity="1" data-original="#0f0f0f" class=""></path><path fill="#0f0f0f" d="M35.566 93.526H6.694A2.128 2.128 0 0 1 4.568 91.4v-5.538c0-1.172.954-2.126 2.126-2.126h28.872c1.172 0 2.125.954 2.125 2.126V91.4a2.128 2.128 0 0 1-2.125 2.126zm-28.872-8.29a.627.627 0 0 0-.626.626V91.4c0 .345.28.626.626.626h28.872c.344 0 .625-.28.625-.626v-5.538a.626.626 0 0 0-.625-.626H6.694z" opacity="1" data-original="#0f0f0f" class=""></path><path fill="#0f0f0f" d="M11.034 93.526a.75.75 0 0 1-.75-.75v-8.29a.75.75 0 0 1 1.5 0v8.29a.75.75 0 0 1-.75.75zM17.765 93.526a.75.75 0 0 1-.75-.75v-8.29a.75.75 0 0 1 1.5 0v8.29a.75.75 0 0 1-.75.75zM24.495 93.526a.75.75 0 0 1-.75-.75v-8.29a.75.75 0 0 1 1.5 0v8.29a.75.75 0 0 1-.75.75zM31.225 93.526a.75.75 0 0 1-.75-.75v-8.29a.75.75 0 0 1 1.5 0v8.29a.75.75 0 0 1-.75.75z" opacity="1" data-original="#0f0f0f" class=""></path><path fill="#aff2b6" d="M9.739 7.443a3.154 3.154 0 1 1-6.308.007 3.154 3.154 0 0 1 6.308-.007z" opacity="1" data-original="#aff2b6" class=""></path><path fill="#7fd685" d="M9.74 7.442A3.158 3.158 0 0 1 6.587 10.6a3.168 3.168 0 0 1-2.971-2.085 3.16 3.16 0 0 0 4.625-3.747 3.142 3.142 0 0 1 1.497 2.674z" opacity="1" data-original="#7fd685" class=""></path><path fill="#0f0f0f" d="M6.588 11.35A3.912 3.912 0 0 1 2.68 7.443a3.909 3.909 0 0 1 3.908-3.901 3.906 3.906 0 0 1 3.901 3.901 3.909 3.909 0 0 1-3.901 3.907zm0-6.308A2.407 2.407 0 0 0 4.18 7.443 2.41 2.41 0 0 0 6.588 9.85a2.404 2.404 0 0 0 0-4.808z" opacity="1" data-original="#0f0f0f" class=""></path></g></svg>