<svg width="332" height="216" viewBox="0 0 332 216" fill="none" xmlns="http://www.w3.org/2000/svg">
<path d="M16 0.5H316C324.56 0.5 331.5 7.43959 331.5 16V35.5H0.5V16C0.5 7.43959 7.43959 0.5 16 0.5Z" fill="white" stroke="#D9D9D9"/>
<mask id="path-2-inside-1_0_1" fill="white">
<path d="M0 36H332V200C332 208.837 324.837 216 316 216H16C7.16345 216 0 208.837 0 200V36Z"/>
</mask>
<path d="M0 36H332V200C332 208.837 324.837 216 316 216H16C7.16345 216 0 208.837 0 200V36Z" fill="url(#paint0_linear_0_1)"/>
<path d="M0 36H332H0ZM333 200C333 209.389 325.389 217 316 217H16C6.61116 217 -1 209.389 -1 200H1C1 208.284 7.71573 215 16 215H316C324.284 215 331 208.284 331 200H333ZM16 217C6.61116 217 -1 209.389 -1 200V36H1V200C1 208.284 7.71573 215 16 215V217ZM333 36V200C333 209.389 325.389 217 316 217V215C324.284 215 331 208.284 331 200V36H333Z" fill="url(#paint1_linear_0_1)" mask="url(#path-2-inside-1_0_1)"/>
<circle cx="24" cy="18" r="4" fill="#D9D9D9"/>
<circle cx="36" cy="18" r="4" fill="#D9D9D9"/>
<circle cx="48" cy="18" r="4" fill="#D9D9D9"/>
<g filter="url(#filter0_d_0_1)">
<rect x="24" y="60" width="284" height="140" rx="8" fill="white"/>
<rect x="24.5" y="60.5" width="283" height="139" rx="7.5" stroke="#D9D9D9"/>
</g>
<rect x="172" y="152" width="2" height="120" rx="1" transform="rotate(-90 172 152)" fill="#D9D9D9"/>
<path d="M197 113.5C197 111.015 199.015 109 201.5 109C203.985 109 206 111.015 206 113.5V150H197V113.5Z" fill="#0A1B04"/>
<path d="M177 130C177 127.791 178.791 126 181 126C183.209 126 185 127.791 185 130V150H177V130Z" fill="#0A1B04"/>
<path d="M218 97C218 94.7909 219.791 93 222 93C224.209 93 226 94.7909 226 97V150H218V97Z" fill="#0A1B04"/>
<path d="M238 113C238 110.791 239.791 109 242 109C244.209 109 246 110.791 246 113V150H238V113Z" fill="#0A1B04"/>
<path d="M279 104C279 101.791 280.791 100 283 100C285.209 100 287 101.791 287 104V150H279V104Z" fill="#0A1B04"/>
<path d="M258 97.5C258 95.0147 260.015 93 262.5 93C264.985 93 267 95.0147 267 97.5V150H258V97.5Z" fill="#0A1B04"/>
<rect x="60" y="178" width="100" height="3" rx="1.5" fill="#D9D9D9"/>
<rect x="60" y="171" width="100" height="3" rx="1.5" fill="#D9D9D9"/>
<rect x="60" y="171" width="70" height="3" rx="1.5" fill="#0A1B04"/>
<path d="M53.0664 168C54.6344 168 55.9144 169.23 55.996 170.778L56 170.934V181.066C56 182.634 54.7704 183.914 53.2224 183.996L53.0664 184H42.9336C42.1825 184 41.4601 183.712 40.915 183.195C40.37 182.679 40.0439 181.972 40.004 181.222L40 181.066V170.934C40 169.366 41.2296 168.086 42.7776 168.004L42.9336 168H53.0664ZM50.9656 173.834C50.8156 173.684 50.6121 173.6 50.4 173.6C50.1879 173.6 49.9844 173.684 49.8344 173.834L47.2 176.468L46.1656 175.434L46.0904 175.368C45.9296 175.244 45.7275 175.185 45.5252 175.204C45.3228 175.224 45.1354 175.319 45.001 175.472C44.8666 175.624 44.7952 175.822 44.8014 176.025C44.8076 176.228 44.8909 176.422 45.0344 176.566L46.6344 178.166L46.7096 178.232C46.8635 178.351 47.0557 178.411 47.2501 178.398C47.4446 178.386 47.6278 178.303 47.7656 178.166L50.9656 174.966L51.032 174.89C51.1514 174.736 51.2105 174.544 51.1983 174.35C51.1861 174.155 51.1033 173.972 50.9656 173.834Z" fill="#0A1B04"/>
<rect x="192" y="178" width="100" height="3" rx="1.5" fill="#D9D9D9"/>
<rect x="192" y="171" width="100" height="3" rx="1.5" fill="#D9D9D9"/>
<rect x="192" y="171" width="70" height="3" rx="1.5" fill="#0A1B04"/>
<path d="M185.066 168C186.634 168 187.914 169.23 187.996 170.778L188 170.934V181.066C188 182.634 186.77 183.914 185.222 183.996L185.066 184H174.934C174.183 184 173.46 183.712 172.915 183.195C172.37 182.679 172.044 181.972 172.004 181.222L172 181.066V170.934C172 169.366 173.23 168.086 174.778 168.004L174.934 168H185.066ZM182.966 173.834C182.816 173.684 182.612 173.6 182.4 173.6C182.188 173.6 181.984 173.684 181.834 173.834L179.2 176.468L178.166 175.434L178.09 175.368C177.93 175.244 177.728 175.185 177.525 175.204C177.323 175.224 177.135 175.319 177.001 175.472C176.867 175.624 176.795 175.822 176.801 176.025C176.808 176.228 176.891 176.422 177.034 176.566L178.634 178.166L178.71 178.232C178.864 178.351 179.056 178.411 179.25 178.398C179.445 178.386 179.628 178.303 179.766 178.166L182.966 174.966L183.032 174.89C183.151 174.736 183.211 174.544 183.198 174.35C183.186 174.155 183.103 173.972 182.966 173.834Z" fill="#0A1B04"/>
<rect x="40" y="149" width="60" height="3" rx="1.5" fill="#D9D9D9"/>
<rect x="40" y="143" width="50" height="3" rx="1.5" fill="#D9D9D9"/>
<circle cx="70" cy="106" r="29.5" fill="#0A1B04" stroke="white"/>
<mask id="path-27-inside-2_0_1" fill="white">
<path d="M50.104 128.453C54.5448 132.388 60.0528 134.918 65.9315 135.723C71.8101 136.528 77.7953 135.571 83.1303 132.974C88.4652 130.377 92.9103 126.256 95.9034 121.133C98.8964 116.01 100.303 110.114 99.9455 104.192L70 106L50.104 128.453Z"/>
</mask>
<path d="M50.104 128.453C54.5448 132.388 60.0528 134.918 65.9315 135.723C71.8101 136.528 77.7953 135.571 83.1303 132.974C88.4652 130.377 92.9103 126.256 95.9034 121.133C98.8964 116.01 100.303 110.114 99.9455 104.192L70 106L50.104 128.453Z" fill="#0A1B04" stroke="white" stroke-width="2" mask="url(#path-27-inside-2_0_1)"/>
<mask id="path-28-inside-3_0_1" fill="white">
<path d="M70 136C64.0666 136 58.2664 134.241 53.3329 130.944C48.3994 127.648 44.5542 122.962 42.2836 117.48C40.013 111.999 39.4189 105.967 40.5764 100.147C41.734 94.3279 44.5912 88.9824 48.7868 84.7868L70 106L70 136Z"/>
</mask>
<path d="M70 136C64.0666 136 58.2664 134.241 53.3329 130.944C48.3994 127.648 44.5542 122.962 42.2836 117.48C40.013 111.999 39.4189 105.967 40.5764 100.147C41.734 94.3279 44.5912 88.9824 48.7868 84.7868L70 106L70 136Z" fill="#0A1B04" stroke="white" stroke-width="2" mask="url(#path-28-inside-3_0_1)"/>
<defs>
<filter id="filter0_d_0_1" x="20" y="58" width="292" height="148" filterUnits="userSpaceOnUse" color-interpolation-filters="sRGB">
<feFlood flood-opacity="0" result="BackgroundImageFix"/>
<feColorMatrix in="SourceAlpha" type="matrix" values="0 0 0 0 0 0 0 0 0 0 0 0 0 0 0 0 0 0 127 0" result="hardAlpha"/>
<feOffset dy="2"/>
<feGaussianBlur stdDeviation="2"/>
<feComposite in2="hardAlpha" operator="out"/>
<feColorMatrix type="matrix" values="0 0 0 0 0.0392157 0 0 0 0 0.105882 0 0 0 0 0.0156863 0 0 0 0.04 0"/>
<feBlend mode="normal" in2="BackgroundImageFix" result="effect1_dropShadow_0_1"/>
<feBlend mode="normal" in="SourceGraphic" in2="effect1_dropShadow_0_1" result="shape"/>
</filter>
<linearGradient id="paint0_linear_0_1" x1="166" y1="36" x2="166" y2="216" gradientUnits="userSpaceOnUse">
<stop stop-color="#F1F5F9"/>
<stop offset="1" stop-color="#F1F5F9" stop-opacity="0"/>
</linearGradient>
<linearGradient id="paint1_linear_0_1" x1="166" y1="36" x2="166" y2="216" gradientUnits="userSpaceOnUse">
<stop stop-color="#D9D9D9"/>
<stop offset="1" stop-color="#D9D9D9" stop-opacity="0"/>
</linearGradient>
</defs>
</svg>
