<svg width="332" height="216" viewBox="0 0 332 216" fill="none" xmlns="http://www.w3.org/2000/svg">
<path d="M16 0.5H316C324.56 0.5 331.5 7.43959 331.5 16V35.5H0.5V16C0.5 7.43959 7.43959 0.5 16 0.5Z" fill="white" stroke="#D9D9D9"/>
<mask id="path-2-inside-1_0_1" fill="white">
<path d="M0 36H332V200C332 208.837 324.837 216 316 216H16C7.16345 216 0 208.837 0 200V36Z"/>
</mask>
<path d="M0 36H332V200C332 208.837 324.837 216 316 216H16C7.16345 216 0 208.837 0 200V36Z" fill="url(#paint0_linear_0_1)"/>
<path d="M0 36H332H0ZM333 200C333 209.389 325.389 217 316 217H16C6.61116 217 -1 209.389 -1 200H1C1 208.284 7.71573 215 16 215H316C324.284 215 331 208.284 331 200H333ZM16 217C6.61116 217 -1 209.389 -1 200V36H1V200C1 208.284 7.71573 215 16 215V217ZM333 36V200C333 209.389 325.389 217 316 217V215C324.284 215 331 208.284 331 200V36H333Z" fill="url(#paint1_linear_0_1)" mask="url(#path-2-inside-1_0_1)"/>
<rect x="23.5" y="59.5" width="285" height="81" rx="8.5" fill="white" stroke="#D9D9D9" stroke-dasharray="5 5"/>
<rect x="126" y="76" width="80" height="3" rx="1.5" fill="#0A1B04"/>
<rect x="91" y="87" width="150" height="3" rx="1.5" fill="#D9D9D9"/>
<circle cx="24" cy="18" r="4" fill="#D9D9D9"/>
<circle cx="36" cy="18" r="4" fill="#D9D9D9"/>
<circle cx="48" cy="18" r="4" fill="#D9D9D9"/>
<g clip-path="url(#clip0_0_1)">
<path d="M166.6 120.4H171.4V113.2H175L169 107.2L163 113.2H166.6V120.4ZM180.205 122.238C179.953 121.97 178.272 120.171 177.792 119.702C177.456 119.379 177.008 119.199 176.542 119.2H174.433L178.11 122.793H173.857C173.799 122.791 173.742 122.805 173.691 122.833C173.641 122.861 173.599 122.903 173.569 122.952L172.59 125.2H165.409L164.43 122.952C164.4 122.903 164.357 122.863 164.307 122.835C164.257 122.807 164.2 122.792 164.142 122.793H159.889L163.565 119.2H161.458C160.981 119.2 160.526 119.391 160.207 119.702C159.727 120.172 158.046 121.971 157.794 122.238C157.207 122.864 156.884 123.362 157.038 123.977L157.711 127.666C157.865 128.283 158.54 128.789 159.214 128.789H178.788C179.461 128.789 180.137 128.283 180.29 127.666L180.964 123.977C181.115 123.362 180.793 122.864 180.205 122.238Z" fill="#0A1B04"/>
</g>
<rect x="44" y="162" width="150" height="3" rx="1.5" fill="#D9D9D9"/>
<rect x="44" y="155" width="150" height="3" rx="1.5" fill="#D9D9D9"/>
<rect x="44" y="155" width="100" height="3" rx="1.5" fill="#0A1B04"/>
<path d="M29.5232 164.424C29.6632 164.341 29.8162 164.262 29.9822 164.186C29.8418 164.395 29.6916 164.597 29.5322 164.792C29.2522 165.129 29.0342 165.308 28.8972 165.364L28.8622 165.376C28.8523 165.362 28.8436 165.347 28.8362 165.332C28.7802 165.222 28.7822 165.116 28.8762 164.972C28.9822 164.807 29.1952 164.618 29.5232 164.424ZM31.9782 162.777C31.8595 162.802 31.7409 162.828 31.6222 162.855C31.7985 162.51 31.9653 162.16 32.1222 161.805C32.2802 162.098 32.4504 162.384 32.6322 162.663C32.4149 162.695 32.1969 162.733 31.9782 162.777ZM34.5032 163.716C34.3482 163.59 34.2028 163.453 34.0682 163.306C34.2975 163.311 34.5015 163.329 34.6802 163.36C34.9972 163.417 35.1462 163.507 35.1982 163.569C35.2142 163.587 35.2234 163.609 35.2242 163.633C35.2205 163.704 35.1999 163.772 35.1642 163.833C35.1443 163.882 35.1119 163.925 35.0702 163.957C35.0498 163.97 35.0253 163.976 35.0012 163.972C34.9112 163.969 34.7432 163.906 34.5032 163.716ZM32.2782 158.97C32.2382 159.214 32.1702 159.494 32.0782 159.799C32.0444 159.685 32.0147 159.569 31.9892 159.453C31.9132 159.1 31.9022 158.823 31.9432 158.631C31.9812 158.454 32.0532 158.383 32.1392 158.348C32.1852 158.327 32.2341 158.314 32.2842 158.308C32.2972 158.338 32.3122 158.4 32.3162 158.506C32.3215 158.628 32.3089 158.783 32.2782 158.971V158.97Z" fill="#D9D9D9"/>
<path fill-rule="evenodd" clip-rule="evenodd" d="M28 152H33.293C33.5582 152 33.8125 152.105 34 152.293L37.707 156C37.8945 156.187 37.9999 156.442 38 156.707V166C38 166.53 37.7893 167.039 37.4142 167.414C37.0391 167.789 36.5304 168 36 168H28C27.4696 168 26.9609 167.789 26.5858 167.414C26.2107 167.039 26 166.53 26 166V154C26 153.47 26.2107 152.961 26.5858 152.586C26.9609 152.211 27.4696 152 28 152ZM33.5 153.5V155.5C33.5 155.765 33.6054 156.02 33.7929 156.207C33.9804 156.395 34.2348 156.5 34.5 156.5H36.5L33.5 153.5ZM28.165 165.668C28.255 165.848 28.395 166.011 28.603 166.087C28.81 166.162 29.015 166.127 29.183 166.057C29.501 165.927 29.818 165.621 30.109 165.271C30.442 164.87 30.792 164.344 31.13 163.761C31.7826 163.568 32.4508 163.432 33.127 163.355C33.427 163.738 33.737 164.068 34.037 164.305C34.317 164.525 34.64 164.708 34.971 164.722C35.1513 164.731 35.3297 164.682 35.481 164.584C35.636 164.483 35.751 164.337 35.835 164.168C35.925 163.987 35.98 163.798 35.973 163.605C35.967 163.415 35.8965 163.232 35.773 163.087C35.547 162.817 35.177 162.687 34.813 162.622C34.3714 162.554 33.9234 162.537 33.478 162.572C33.1021 162.04 32.7741 161.476 32.498 160.886C32.748 160.226 32.935 159.602 33.018 159.092C33.054 158.874 33.073 158.666 33.066 158.478C33.0647 158.291 33.0213 158.107 32.939 157.94C32.8916 157.848 32.8241 157.767 32.7416 157.704C32.6591 157.641 32.5636 157.597 32.462 157.575C32.26 157.532 32.052 157.575 31.861 157.652C31.484 157.802 31.285 158.122 31.21 158.475C31.137 158.815 31.17 159.211 31.256 159.611C31.344 160.017 31.494 160.459 31.686 160.906C31.3782 161.669 31.0235 162.413 30.624 163.133C30.1087 163.295 29.612 163.512 29.142 163.778C28.772 163.998 28.443 164.258 28.245 164.565C28.035 164.891 27.97 165.279 28.165 165.668Z" fill="#0A1B04"/>
<rect x="44" y="186" width="150" height="3" rx="1.5" fill="#D9D9D9"/>
<rect x="44" y="179" width="150" height="3" rx="1.5" fill="#D9D9D9"/>
<rect x="44" y="179" width="100" height="3" rx="1.5" fill="#0A1B04"/>
<path d="M29.5232 188.424C29.6632 188.341 29.8162 188.262 29.9822 188.186C29.8418 188.395 29.6916 188.597 29.5322 188.792C29.2522 189.129 29.0342 189.308 28.8972 189.364L28.8622 189.376C28.8523 189.362 28.8436 189.347 28.8362 189.332C28.7802 189.222 28.7822 189.116 28.8762 188.972C28.9822 188.807 29.1952 188.618 29.5232 188.424ZM31.9782 186.777C31.8595 186.802 31.7409 186.828 31.6222 186.855C31.7985 186.51 31.9653 186.16 32.1222 185.805C32.2802 186.098 32.4504 186.384 32.6322 186.663C32.4149 186.695 32.1969 186.733 31.9782 186.777ZM34.5032 187.716C34.3482 187.59 34.2028 187.453 34.0682 187.306C34.2975 187.311 34.5015 187.329 34.6802 187.36C34.9972 187.417 35.1462 187.507 35.1982 187.569C35.2142 187.587 35.2234 187.609 35.2242 187.633C35.2205 187.704 35.1999 187.772 35.1642 187.833C35.1443 187.882 35.1119 187.925 35.0702 187.957C35.0498 187.97 35.0253 187.976 35.0012 187.972C34.9112 187.969 34.7432 187.906 34.5032 187.716ZM32.2782 182.97C32.2382 183.214 32.1702 183.494 32.0782 183.799C32.0444 183.685 32.0147 183.569 31.9892 183.453C31.9132 183.1 31.9022 182.823 31.9432 182.631C31.9812 182.454 32.0532 182.383 32.1392 182.348C32.1852 182.327 32.2341 182.314 32.2842 182.308C32.2972 182.338 32.3122 182.4 32.3162 182.506C32.3215 182.628 32.3089 182.783 32.2782 182.971V182.97Z" fill="#D9D9D9"/>
<path fill-rule="evenodd" clip-rule="evenodd" d="M28 176H33.293C33.5582 176 33.8125 176.105 34 176.293L37.707 180C37.8945 180.187 37.9999 180.442 38 180.707V190C38 190.53 37.7893 191.039 37.4142 191.414C37.0391 191.789 36.5304 192 36 192H28C27.4696 192 26.9609 191.789 26.5858 191.414C26.2107 191.039 26 190.53 26 190V178C26 177.47 26.2107 176.961 26.5858 176.586C26.9609 176.211 27.4696 176 28 176ZM33.5 177.5V179.5C33.5 179.765 33.6054 180.02 33.7929 180.207C33.9804 180.395 34.2348 180.5 34.5 180.5H36.5L33.5 177.5ZM28.165 189.668C28.255 189.848 28.395 190.011 28.603 190.087C28.81 190.162 29.015 190.127 29.183 190.057C29.501 189.927 29.818 189.621 30.109 189.271C30.442 188.87 30.792 188.344 31.13 187.761C31.7826 187.568 32.4508 187.432 33.127 187.355C33.427 187.738 33.737 188.068 34.037 188.305C34.317 188.525 34.64 188.708 34.971 188.722C35.1513 188.731 35.3297 188.682 35.481 188.584C35.636 188.483 35.751 188.337 35.835 188.168C35.925 187.987 35.98 187.798 35.973 187.605C35.967 187.415 35.8965 187.232 35.773 187.087C35.547 186.817 35.177 186.687 34.813 186.622C34.3714 186.554 33.9234 186.537 33.478 186.572C33.1021 186.04 32.7741 185.476 32.498 184.886C32.748 184.226 32.935 183.602 33.018 183.092C33.054 182.874 33.073 182.666 33.066 182.478C33.0647 182.291 33.0213 182.107 32.939 181.94C32.8916 181.848 32.8241 181.767 32.7416 181.704C32.6591 181.641 32.5636 181.597 32.462 181.575C32.26 181.532 32.052 181.575 31.861 181.652C31.484 181.802 31.285 182.122 31.21 182.475C31.137 182.815 31.17 183.211 31.256 183.611C31.344 184.017 31.494 184.459 31.686 184.906C31.3782 185.669 31.0235 186.413 30.624 187.133C30.1087 187.295 29.612 187.512 29.142 187.778C28.772 187.998 28.443 188.258 28.245 188.565C28.035 188.891 27.97 189.279 28.165 189.668Z" fill="#0A1B04"/>
<defs>
<linearGradient id="paint0_linear_0_1" x1="166" y1="36" x2="166" y2="216" gradientUnits="userSpaceOnUse">
<stop stop-color="#F1F5F9"/>
<stop offset="1" stop-color="#F1F5F9" stop-opacity="0"/>
</linearGradient>
<linearGradient id="paint1_linear_0_1" x1="166" y1="36" x2="166" y2="216" gradientUnits="userSpaceOnUse">
<stop stop-color="#D9D9D9"/>
<stop offset="1" stop-color="#D9D9D9" stop-opacity="0"/>
</linearGradient>
<clipPath id="clip0_0_1">
<rect width="24" height="24" fill="white" transform="translate(157 106)"/>
</clipPath>
</defs>
</svg>
